G04*
G04 #@! TF.GenerationSoftware,Altium Limited,Altium Designer,25.8.1 (18)*
G04*
G04 Layer_Physical_Order=1*
G04 Layer_Color=255*
%FSLAX44Y44*%
%MOMM*%
G71*
G04*
G04 #@! TF.SameCoordinates,A110975B-2954-447A-95C7-488C009B8A97*
G04*
G04*
G04 #@! TF.FilePolarity,Positive*
G04*
G01*
G75*
%ADD26R,0.8000X0.8000*%
%ADD27R,1.3000X0.9000*%
%ADD29R,0.6000X1.4000*%
%ADD30R,0.9000X1.3000*%
%ADD33R,2.1000X2.0000*%
%ADD34R,2.0000X2.1000*%
%ADD36C,1.4000*%
%ADD40R,1.4000X1.4000*%
G04:AMPARAMS|DCode=48|XSize=0.65mm|YSize=1.65mm|CornerRadius=0.0488mm|HoleSize=0mm|Usage=FLASHONLY|Rotation=90.000|XOffset=0mm|YOffset=0mm|HoleType=Round|Shape=RoundedRectangle|*
%AMROUNDEDRECTD48*
21,1,0.6500,1.5525,0,0,90.0*
21,1,0.5525,1.6500,0,0,90.0*
1,1,0.0975,0.7763,0.2763*
1,1,0.0975,0.7763,-0.2763*
1,1,0.0975,-0.7763,-0.2763*
1,1,0.0975,-0.7763,0.2763*
%
%ADD48ROUNDEDRECTD48*%
%ADD49R,3.5000X1.6000*%
G04:AMPARAMS|DCode=50|XSize=1.6mm|YSize=2.7mm|CornerRadius=0.2mm|HoleSize=0mm|Usage=FLASHONLY|Rotation=270.000|XOffset=0mm|YOffset=0mm|HoleType=Round|Shape=RoundedRectangle|*
%AMROUNDEDRECTD50*
21,1,1.6000,2.3000,0,0,270.0*
21,1,1.2000,2.7000,0,0,270.0*
1,1,0.4000,-1.1500,-0.6000*
1,1,0.4000,-1.1500,0.6000*
1,1,0.4000,1.1500,0.6000*
1,1,0.4000,1.1500,-0.6000*
%
%ADD50ROUNDEDRECTD50*%
G04:AMPARAMS|DCode=51|XSize=1.4mm|YSize=1.7mm|CornerRadius=0.175mm|HoleSize=0mm|Usage=FLASHONLY|Rotation=270.000|XOffset=0mm|YOffset=0mm|HoleType=Round|Shape=RoundedRectangle|*
%AMROUNDEDRECTD51*
21,1,1.4000,1.3500,0,0,270.0*
21,1,1.0500,1.7000,0,0,270.0*
1,1,0.3500,-0.6750,-0.5250*
1,1,0.3500,-0.6750,0.5250*
1,1,0.3500,0.6750,0.5250*
1,1,0.3500,0.6750,-0.5250*
%
%ADD51ROUNDEDRECTD51*%
G04:AMPARAMS|DCode=52|XSize=1mm|YSize=1.7mm|CornerRadius=0.125mm|HoleSize=0mm|Usage=FLASHONLY|Rotation=0.000|XOffset=0mm|YOffset=0mm|HoleType=Round|Shape=RoundedRectangle|*
%AMROUNDEDRECTD52*
21,1,1.0000,1.4500,0,0,0.0*
21,1,0.7500,1.7000,0,0,0.0*
1,1,0.2500,0.3750,-0.7250*
1,1,0.2500,-0.3750,-0.7250*
1,1,0.2500,-0.3750,0.7250*
1,1,0.2500,0.3750,0.7250*
%
%ADD52ROUNDEDRECTD52*%
G04:AMPARAMS|DCode=53|XSize=1.37mm|YSize=0.59mm|CornerRadius=0.0738mm|HoleSize=0mm|Usage=FLASHONLY|Rotation=90.000|XOffset=0mm|YOffset=0mm|HoleType=Round|Shape=RoundedRectangle|*
%AMROUNDEDRECTD53*
21,1,1.3700,0.4425,0,0,90.0*
21,1,1.2225,0.5900,0,0,90.0*
1,1,0.1475,0.2213,0.6113*
1,1,0.1475,0.2213,-0.6113*
1,1,0.1475,-0.2213,-0.6113*
1,1,0.1475,-0.2213,0.6113*
%
%ADD53ROUNDEDRECTD53*%
%ADD54R,1.5000X1.5500*%
G04:AMPARAMS|DCode=55|XSize=1mm|YSize=1.7mm|CornerRadius=0.125mm|HoleSize=0mm|Usage=FLASHONLY|Rotation=90.000|XOffset=0mm|YOffset=0mm|HoleType=Round|Shape=RoundedRectangle|*
%AMROUNDEDRECTD55*
21,1,1.0000,1.4500,0,0,90.0*
21,1,0.7500,1.7000,0,0,90.0*
1,1,0.2500,0.7250,0.3750*
1,1,0.2500,0.7250,-0.3750*
1,1,0.2500,-0.7250,-0.3750*
1,1,0.2500,-0.7250,0.3750*
%
%ADD55ROUNDEDRECTD55*%
G04:AMPARAMS|DCode=56|XSize=1.6mm|YSize=2.7mm|CornerRadius=0.2mm|HoleSize=0mm|Usage=FLASHONLY|Rotation=180.000|XOffset=0mm|YOffset=0mm|HoleType=Round|Shape=RoundedRectangle|*
%AMROUNDEDRECTD56*
21,1,1.6000,2.3000,0,0,180.0*
21,1,1.2000,2.7000,0,0,180.0*
1,1,0.4000,-0.6000,1.1500*
1,1,0.4000,0.6000,1.1500*
1,1,0.4000,0.6000,-1.1500*
1,1,0.4000,-0.6000,-1.1500*
%
%ADD56ROUNDEDRECTD56*%
%ADD57R,1.5000X2.2000*%
%ADD58C,0.5000*%
%ADD59C,0.4000*%
%ADD60C,1.0000*%
%ADD61C,1.5000*%
%ADD62C,1.6764*%
%ADD63R,1.6764X1.6764*%
%ADD64R,1.5000X1.5000*%
%ADD65R,1.9800X1.9800*%
%ADD66C,1.5500*%
%ADD67C,1.9800*%
%ADD68C,1.9350*%
%ADD69C,1.5240*%
G36*
X60250Y76750D02*
Y127000D01*
X74750Y141500D01*
X91500D01*
X96000Y137000D01*
Y76750D01*
X60250D01*
D02*
G37*
D26*
X600250Y612501D02*
D03*
X559000Y611750D02*
D03*
X118000Y605001D02*
D03*
X108500Y629001D02*
D03*
X99000Y605001D02*
D03*
X540000Y611750D02*
D03*
X549500Y635750D02*
D03*
X590750Y636501D02*
D03*
X581250Y612501D02*
D03*
D27*
X585750Y191000D02*
D03*
X514000Y141000D02*
D03*
X585750Y251500D02*
D03*
Y230500D02*
D03*
X514000Y162000D02*
D03*
X585750Y212000D02*
D03*
D29*
X563300Y193250D02*
D03*
X525200Y246250D02*
D03*
X537900D02*
D03*
X525200Y193250D02*
D03*
X537900D02*
D03*
X550600D02*
D03*
X563300Y246250D02*
D03*
X550600D02*
D03*
D30*
X568750Y83500D02*
D03*
X511000Y271500D02*
D03*
X547500Y108250D02*
D03*
X547750Y83500D02*
D03*
X485500Y191500D02*
D03*
X473250Y142000D02*
D03*
X532000Y271500D02*
D03*
X568500Y108250D02*
D03*
X569750Y132500D02*
D03*
X548750D02*
D03*
X506500Y191500D02*
D03*
X494250Y142000D02*
D03*
D33*
X494250Y111500D02*
D03*
X523250D02*
D03*
D34*
X108500Y685000D02*
D03*
Y656000D02*
D03*
D36*
X295000Y95250D02*
D03*
X220000D02*
D03*
X320000D02*
D03*
X270000D02*
D03*
X245000D02*
D03*
X370250Y623750D02*
D03*
X420250D02*
D03*
X395250D02*
D03*
X445250D02*
D03*
X470250D02*
D03*
X355750Y57250D02*
D03*
X616750Y621000D02*
D03*
X612250Y471500D02*
D03*
X613500Y290750D02*
D03*
X493500Y449750D02*
D03*
X557750Y398500D02*
D03*
X520500Y290683D02*
D03*
X432500Y273250D02*
D03*
X593250Y171250D02*
D03*
X582500Y68000D02*
D03*
X533000Y148000D02*
D03*
X465750Y243000D02*
D03*
X466500Y21250D02*
D03*
X390161Y89783D02*
D03*
X253750Y396250D02*
D03*
X162250Y395500D02*
D03*
X139000Y582750D02*
D03*
X74250Y482750D02*
D03*
X56250Y443750D02*
D03*
X87000Y395000D02*
D03*
X366250Y249250D02*
D03*
X361500Y176000D02*
D03*
X182000Y263500D02*
D03*
X127750Y165250D02*
D03*
X70500Y275000D02*
D03*
X88500Y181000D02*
D03*
X98750Y45250D02*
D03*
X510750Y347500D02*
D03*
X270125Y113250D02*
D03*
X465750Y60500D02*
D03*
X391250Y107750D02*
D03*
X196250Y113250D02*
D03*
X188750Y166000D02*
D03*
X496750Y369750D02*
D03*
X246750Y113250D02*
D03*
X455250Y227250D02*
D03*
X148936Y281104D02*
D03*
X120750Y248250D02*
D03*
X594750Y402500D02*
D03*
X587250Y269000D02*
D03*
X494750Y224500D02*
D03*
X457500Y141250D02*
D03*
X184750Y284000D02*
D03*
X142500Y683250D02*
D03*
X62750Y545250D02*
D03*
X173250Y237250D02*
D03*
X174500Y134750D02*
D03*
X156500Y30250D02*
D03*
X279809Y412750D02*
D03*
X286750Y250750D02*
D03*
X205250Y328500D02*
D03*
X167500Y433750D02*
D03*
X322500Y322500D02*
D03*
X297360Y355812D02*
D03*
X252000Y267250D02*
D03*
X259750Y284250D02*
D03*
X194000Y430132D02*
D03*
X382500Y433250D02*
D03*
X264000Y252250D02*
D03*
X126750Y404132D02*
D03*
X413250Y509750D02*
D03*
X296000Y399750D02*
D03*
X341250Y322750D02*
D03*
X222500Y414500D02*
D03*
X417250Y469250D02*
D03*
X230750Y328750D02*
D03*
X363750Y356250D02*
D03*
X363000Y494250D02*
D03*
X383817Y511067D02*
D03*
X294250Y423750D02*
D03*
X414875Y431750D02*
D03*
X599750Y537250D02*
D03*
X549750Y342750D02*
D03*
X455000Y432500D02*
D03*
X451304Y468726D02*
D03*
X93257Y432339D02*
D03*
X376500Y393000D02*
D03*
X518750Y657500D02*
D03*
Y636750D02*
D03*
X140750Y614250D02*
D03*
X361500Y322250D02*
D03*
X138500Y552000D02*
D03*
X506500Y520750D02*
D03*
D40*
X195000Y95250D02*
D03*
X495250Y623750D02*
D03*
D48*
X425000Y112450D02*
D03*
Y99750D02*
D03*
Y125150D02*
D03*
X368500Y99750D02*
D03*
Y125150D02*
D03*
Y112450D02*
D03*
X425000Y87050D02*
D03*
X368500D02*
D03*
D49*
X383500Y39750D02*
D03*
X439500D02*
D03*
D50*
X145500Y114750D02*
D03*
Y142750D02*
D03*
D51*
X112750Y114820D02*
D03*
Y137680D02*
D03*
X68750Y60820D02*
D03*
Y83680D02*
D03*
D52*
X157000Y60249D02*
D03*
X613001Y495000D02*
D03*
X599750Y589000D02*
D03*
X613000Y427500D02*
D03*
Y371000D02*
D03*
Y315000D02*
D03*
X558500Y588750D02*
D03*
X119000Y581500D02*
D03*
X196750Y267000D02*
D03*
X88750Y269501D02*
D03*
X64000Y28000D02*
D03*
X169250Y186750D02*
D03*
X169250Y214750D02*
D03*
X552750Y427750D02*
D03*
X150250Y214750D02*
D03*
X150250Y186750D02*
D03*
X136000Y27750D02*
D03*
X215750Y267000D02*
D03*
X107750Y269501D02*
D03*
X553499Y315250D02*
D03*
X599750Y559750D02*
D03*
X552250Y371500D02*
D03*
X558500Y559500D02*
D03*
X571750Y427750D02*
D03*
X118750Y552250D02*
D03*
X580750Y559750D02*
D03*
Y589000D02*
D03*
X117000Y27750D02*
D03*
X83000Y28000D02*
D03*
X572499Y315250D02*
D03*
X594000Y315000D02*
D03*
X594000Y371000D02*
D03*
X571250Y371500D02*
D03*
X594000Y427500D02*
D03*
Y495000D02*
D03*
X138000Y60249D02*
D03*
X99750Y552250D02*
D03*
X539500Y588750D02*
D03*
Y559500D02*
D03*
X100000Y581500D02*
D03*
D53*
X102750Y87750D02*
D03*
Y64350D02*
D03*
X93251Y87750D02*
D03*
Y64350D02*
D03*
X112250Y87750D02*
D03*
Y64350D02*
D03*
D54*
X573000Y157750D02*
D03*
X484250Y245750D02*
D03*
X502750D02*
D03*
X554500Y157750D02*
D03*
D55*
X535500Y27250D02*
D03*
Y46250D02*
D03*
X505000Y46750D02*
D03*
Y27750D02*
D03*
D56*
X67750Y181249D02*
D03*
X39750D02*
D03*
D57*
X27000Y130500D02*
D03*
X82000D02*
D03*
D58*
X102800Y87800D02*
Y106371D01*
X102750Y87750D02*
X102800Y87800D01*
Y106371D02*
X111250Y114820D01*
X142180D01*
X424389Y124539D02*
X425000Y125150D01*
X249000Y60000D02*
X272000Y37000D01*
X153500Y67249D02*
X157000Y63749D01*
X272000Y37000D02*
X380750D01*
X372750Y57250D02*
X384207Y45793D01*
X150250Y115500D02*
X153500Y112249D01*
X383750Y41500D02*
X394750D01*
X380750Y37000D02*
X383500Y39750D01*
X157000Y60249D02*
Y63749D01*
X160000Y60000D02*
X249000D01*
X153500Y67249D02*
Y112249D01*
X394750Y41500D02*
X398500Y45250D01*
X355750Y57250D02*
X372750D01*
X442250Y39500D02*
X449250D01*
X466500Y21250D02*
Y22250D01*
X449250Y39500D02*
X466500Y22250D01*
X88500Y181000D02*
X88750Y181250D01*
X88500Y181000D02*
X88750Y180750D01*
X67750Y181249D02*
X68000Y181000D01*
X88500D01*
X168500Y214000D02*
X170000D01*
X168500D02*
X170000D01*
X168500D02*
X170000D01*
X169250D02*
X170000D01*
X45749Y192250D02*
X67750Y214250D01*
X148500D02*
X149000Y213750D01*
X67750Y214250D02*
X148500D01*
X150250Y214750D02*
Y218907D01*
X142250Y223679D02*
X145179Y220750D01*
X147750D01*
X142250Y223679D02*
Y273675D01*
X147750Y220750D02*
X148625Y219875D01*
X148936Y280361D02*
Y281104D01*
X142250Y273675D02*
X148936Y280361D01*
X164278Y235528D02*
X171528D01*
X150250Y221500D02*
X164278Y235528D01*
X150250Y218907D02*
Y221500D01*
X171528Y235528D02*
X173250Y237250D01*
X148936Y281104D02*
X149000Y281168D01*
X24750Y132750D02*
X27000Y130500D01*
X24750Y160749D02*
X39750Y175749D01*
X24750Y132750D02*
Y160749D01*
X39750Y175749D02*
Y186750D01*
X39750D02*
X39750D01*
X34250Y192250D02*
Y192250D01*
X18000Y208500D02*
Y502000D01*
X34250Y192250D02*
X39750Y186750D01*
X18000Y208500D02*
X34250Y192250D01*
X39750Y186749D02*
X45250Y192250D01*
X45749D01*
X484000Y188000D02*
Y191750D01*
X472375Y141625D02*
X472625Y141375D01*
X108250Y685500D02*
X110500Y683250D01*
X150250Y186250D02*
Y214750D01*
X133000Y31250D02*
X152943D01*
X547750Y83500D02*
X547750D01*
X521558D02*
X547750D01*
X552750Y424250D02*
X567000Y410000D01*
X584815D01*
X552750Y424250D02*
Y427750D01*
X584815Y410000D02*
X592315Y402500D01*
X594750D01*
X586500Y267500D02*
X587000Y268000D01*
X586500Y252250D02*
Y267500D01*
X507750Y266250D02*
X512000Y270500D01*
X585750Y251500D02*
X586500Y252250D01*
X503250Y246250D02*
X524750D01*
X507750Y250750D02*
Y266250D01*
X503250Y246250D02*
X507750Y250750D01*
X498250Y241250D02*
X502750Y245750D01*
X547625Y106625D02*
X547750Y106750D01*
X547625Y83625D02*
Y106625D01*
Y83625D02*
X547750Y83500D01*
X502250Y102807D02*
Y104000D01*
Y102807D02*
X506250Y98808D01*
X494750Y111500D02*
X502250Y104000D01*
X506250Y98808D02*
X521558Y83500D01*
X506250Y98808D02*
X506250D01*
X498250Y230435D02*
Y241250D01*
X494750Y226935D02*
X498250Y230435D01*
X494750Y224500D02*
Y226935D01*
X473250Y177250D02*
X484000Y188000D01*
X473250Y142000D02*
Y177250D01*
Y142000D02*
X474054Y141196D01*
Y131197D02*
Y141196D01*
X492250Y111750D02*
Y113000D01*
X494250Y111500D02*
X494750D01*
X474054Y131197D02*
X492250Y113000D01*
X457500Y141250D02*
X457875Y141625D01*
X472375D01*
X110500Y683250D02*
X142500D01*
X102179Y678679D02*
X108500Y685000D01*
X42250Y627500D02*
X93429Y678679D01*
X102179D01*
X42250Y565750D02*
Y627500D01*
Y565750D02*
X62750Y545250D01*
X61250D02*
X62750D01*
X18000Y502000D02*
X61250Y545250D01*
X174500Y134750D02*
Y156250D01*
X152750Y178000D02*
X174500Y156250D01*
X152750Y178000D02*
Y184250D01*
X150250Y186750D02*
X152750Y184250D01*
X155000Y29000D02*
Y29193D01*
X152943Y31250D02*
X155000Y29193D01*
X581000Y229750D02*
Y230500D01*
Y229750D02*
Y230500D01*
Y229750D02*
Y230500D01*
X592750Y314750D02*
X594000D01*
X592750D02*
X594000D01*
X592750D02*
X594000D01*
X592750Y427000D02*
X594000D01*
X592750D02*
X594000D01*
X592750D02*
X594000D01*
X592750D02*
X594000D01*
X592750Y314750D02*
X594000D01*
X555751Y157250D02*
Y157750D01*
X581000Y229750D02*
Y230500D01*
X592375Y494875D02*
X593000Y495500D01*
X565125Y494875D02*
X592375D01*
X565000Y494750D02*
X565125Y494875D01*
D59*
X398500Y47429D02*
X408500Y57429D01*
Y116000D01*
X416400Y123900D01*
X423750D01*
X424389Y124539D01*
X398500Y45250D02*
Y47429D01*
X366250Y249250D02*
X383750D01*
X407750Y273250D01*
X432500D01*
X614837Y619087D02*
X616750Y621000D01*
X606836Y619087D02*
X614837D01*
X612625Y493375D02*
X614750Y495500D01*
X612625Y471875D02*
Y493375D01*
X600250Y612501D02*
X606836Y619087D01*
X588751Y624000D02*
X600250Y612501D01*
X599750Y589000D02*
X600000Y589250D01*
Y610750D01*
X612625Y468875D02*
X613750Y470000D01*
X613000Y371000D02*
Y427500D01*
X612625Y427875D02*
Y468875D01*
Y427875D02*
X613000Y427500D01*
X613250Y291000D02*
Y311750D01*
Y291000D02*
X613500Y290750D01*
X613000Y315000D02*
Y371000D01*
X612250Y471500D02*
X612625Y471875D01*
X612500Y312500D02*
X613250Y311750D01*
X560243Y618993D02*
X565250Y624000D01*
X588751D01*
X560243Y612992D02*
Y618993D01*
X559000Y611750D02*
X560243Y612992D01*
X558750Y611500D02*
X559000Y611750D01*
X558000Y587500D02*
X558750Y588250D01*
Y611500D01*
X491750Y449750D02*
X492817Y448683D01*
X502817D01*
X555837Y400413D02*
X557750Y398500D01*
X551087Y400413D02*
X555837D01*
X518586Y288769D02*
X520500Y290683D01*
X508519Y288769D02*
X518586D01*
X502817Y448683D02*
X551087Y400413D01*
X489250Y269500D02*
X508519Y288769D01*
X489250Y251000D02*
Y269500D01*
X590250Y176956D02*
Y188500D01*
Y176956D02*
X593250Y173956D01*
X587000Y191750D02*
X590250Y188500D01*
X593250Y171250D02*
Y173956D01*
X589250Y163500D02*
X591500Y165750D01*
X563250Y192050D02*
X564300Y191000D01*
X585750D01*
X563250Y192050D02*
Y193250D01*
X573000Y158000D02*
X578500Y163500D01*
X589250D01*
X573000Y157750D02*
Y158000D01*
X569750Y80500D02*
Y82750D01*
X581250Y67250D02*
Y68000D01*
X569750Y80500D02*
X581000Y69250D01*
X555000Y40500D02*
X582500Y68000D01*
X555000Y33750D02*
Y40500D01*
X548750Y27500D02*
X555000Y33750D01*
X534500Y27500D02*
X548750D01*
X484500Y246250D02*
X489250Y251000D01*
X481250Y243000D02*
X483000Y244750D01*
X465750Y243000D02*
X481250D01*
X525250Y141000D02*
X532500Y148250D01*
X388500Y197500D02*
Y225250D01*
X368914Y177914D02*
X388500Y197500D01*
X514000Y141000D02*
X525250D01*
X388678Y88300D02*
X390161Y89783D01*
X374750Y88300D02*
X388678D01*
X374050Y87600D02*
X374750Y88300D01*
X374050Y86500D02*
Y87600D01*
X253375Y395875D02*
X253750Y396250D01*
X163125Y395875D02*
X253375D01*
X161375Y396125D02*
X162375Y395125D01*
X163125Y395875D01*
X120000Y582750D02*
X139000D01*
X118000Y605001D02*
X118500Y604501D01*
Y585000D02*
Y604501D01*
X119250Y582000D02*
X120000Y582750D01*
X56250Y464750D02*
X74250Y482750D01*
X56250Y443750D02*
Y464750D01*
X155176Y391132D02*
X158794Y394750D01*
X161000D01*
X93574Y391132D02*
X155176D01*
X87000Y395000D02*
X89706D01*
X93574Y391132D01*
X70625Y274875D02*
X85750D01*
X70500Y275000D02*
X70625Y274875D01*
X366000Y247750D02*
X388500Y225250D01*
X196750Y266500D02*
Y267000D01*
X363413Y177914D02*
X368914D01*
X361500Y176000D02*
X363413Y177914D01*
X182000Y263500D02*
X193750D01*
X196750Y266500D01*
X140749Y142000D02*
X145500D01*
X127750Y162544D02*
X134000Y156294D01*
X127750Y162544D02*
Y165250D01*
X134000Y148750D02*
X140749Y142000D01*
X134000Y148750D02*
Y156294D01*
X85750Y274875D02*
X90000Y270625D01*
Y267750D02*
Y270625D01*
X117500Y155000D02*
X127750Y165250D01*
X117500Y142680D02*
Y155000D01*
X112319Y137500D02*
X117500Y142680D01*
X111000Y137500D02*
X112319D01*
X102500Y55746D02*
Y57500D01*
X100663Y53910D02*
X102500Y55746D01*
X100663Y47164D02*
Y53910D01*
X98750Y45250D02*
X100663Y47164D01*
X77750Y45250D02*
X98750D01*
X63750Y31250D02*
X77750Y45250D01*
X62250Y31250D02*
X63750D01*
X537000Y46500D02*
X537750Y45750D01*
X505250Y46500D02*
X537000D01*
X505000Y46750D02*
X505250Y46500D01*
X461200Y87050D02*
X500500Y47750D01*
X425000Y87050D02*
X461200D01*
X500500Y47750D02*
X503000D01*
X442250Y122500D02*
Y238750D01*
X510750Y307250D02*
Y347500D01*
X442250Y238750D02*
X510750Y307250D01*
X435650Y115900D02*
X442250Y122500D01*
X435650Y115900D02*
X435650D01*
X426250Y113700D02*
X433450D01*
X425000Y112450D02*
X426250Y113700D01*
X433450D02*
X435650Y115900D01*
X425500Y100250D02*
Y111950D01*
X425000Y112450D02*
X425500Y111950D01*
X425000Y99750D02*
X425500Y100250D01*
X270125Y113250D02*
X272038Y115163D01*
X277468Y115750D02*
X343250D01*
X276882Y115163D02*
X277468Y115750D01*
X343250D02*
X358000Y101000D01*
X272038Y115163D02*
X276882D01*
X358000Y101000D02*
X366250D01*
X367500Y99750D01*
X465750Y60500D02*
X467663Y58587D01*
Y53743D02*
Y58587D01*
X473500Y43500D02*
X489250Y27750D01*
X505000D01*
X467663Y53743D02*
X473500Y47907D01*
Y43500D02*
Y47907D01*
X369000Y111750D02*
X369700Y112450D01*
X383844D01*
X368500Y124500D02*
X369000Y125000D01*
X368500Y112450D02*
Y124500D01*
X388544Y107750D02*
X391250D01*
X383844Y112450D02*
X388544Y107750D01*
X196250Y113250D02*
Y115956D01*
X192500Y119706D02*
Y159544D01*
X186500Y166000D02*
X188750D01*
X171000Y181500D02*
X186500Y166000D01*
X169250Y214750D02*
X170000Y214000D01*
X171000Y181500D02*
Y183250D01*
X168500Y189250D02*
Y213750D01*
X192500Y119706D02*
X196250Y115956D01*
X188750Y163294D02*
Y166000D01*
Y163294D02*
X192500Y159544D01*
X420500Y237358D02*
X471042Y287900D01*
X471042D01*
X478950Y295808D02*
Y295808D01*
X493500Y363794D02*
X496750Y367044D01*
X478950Y295808D02*
X493500Y310358D01*
X471042Y287900D02*
X478950Y295808D01*
X496750Y367044D02*
Y369750D01*
X493500Y310358D02*
Y363794D01*
X246750Y113250D02*
Y113500D01*
X271250Y138000D01*
X382000D01*
X420500Y176500D01*
Y237358D01*
X472750Y227250D02*
X506500Y193500D01*
X455250Y227250D02*
X472750D01*
X506500Y191500D02*
Y193500D01*
X182802Y282552D02*
X185000Y284750D01*
X150384Y282552D02*
X182802D01*
X149000Y281168D02*
X150384Y282552D01*
X107750Y266000D02*
X107750D01*
X118837Y254914D01*
Y250163D02*
Y254914D01*
Y250163D02*
X120750Y248250D01*
X547750Y129500D02*
Y131500D01*
X546250Y128000D02*
X547750Y129500D01*
X540250Y128000D02*
X546250D01*
X523750Y111500D02*
X540250Y128000D01*
X523250Y111500D02*
X523750D01*
X279809Y334843D02*
Y412750D01*
Y334843D02*
X286750Y327902D01*
Y250750D02*
Y327902D01*
X198743Y330413D02*
X203337D01*
X72250Y331250D02*
X197907D01*
X203337Y330413D02*
X205250Y328500D01*
X197907Y331250D02*
X198743Y330413D01*
X45000Y358500D02*
Y399500D01*
X166600Y434650D02*
X167500Y433750D01*
X115400Y434650D02*
X166600D01*
X99750Y419000D02*
X115400Y434650D01*
X45000Y399500D02*
X64500Y419000D01*
X99750D01*
X45000Y358500D02*
X72250Y331250D01*
X297360Y355812D02*
X298466Y354707D01*
Y346534D02*
X322500Y322500D01*
X298466Y346534D02*
Y354707D01*
X216500Y267250D02*
X252000D01*
X215625Y265125D02*
X217000Y263750D01*
X216250Y265750D02*
X252500D01*
X213500Y267250D02*
X217000Y263750D01*
X213500Y267250D02*
Y268750D01*
X216250Y362000D02*
X265250Y313000D01*
X63250Y362000D02*
X216250D01*
X259750Y284250D02*
Y286093D01*
X265250Y291593D02*
Y313000D01*
X259750Y286093D02*
X265250Y291593D01*
X57500Y367750D02*
X63250Y362000D01*
X122500Y420250D02*
X182537D01*
X57500Y367750D02*
Y391750D01*
X110250Y408000D02*
X122500Y420250D01*
X57500Y391750D02*
X73750Y408000D01*
X110250D01*
X192419Y430132D02*
X194000D01*
X182537Y420250D02*
X192419Y430132D01*
X264000Y252250D02*
X275000Y263250D01*
X266809Y329191D02*
X275000Y321000D01*
Y263250D02*
Y321000D01*
X266809Y329191D02*
Y418135D01*
X285424Y436750D02*
X332580D01*
X266809Y418135D02*
X285424Y436750D01*
X332580D02*
X336080Y433250D01*
X382500D01*
X107750Y266000D02*
Y269501D01*
X266750Y481250D02*
X384750D01*
X251750Y466250D02*
X266750Y481250D01*
X384750D02*
X413250Y509750D01*
X139045Y406045D02*
X141750Y408750D01*
X128663Y406045D02*
X139045D01*
X141750Y408750D02*
X194250D01*
X126750Y404132D02*
X128663Y406045D01*
X194250Y408750D02*
X214250Y428750D01*
X235250D02*
X251750Y445250D01*
X214250Y428750D02*
X235250D01*
X251750Y445250D02*
Y466250D01*
X296250Y381343D02*
Y399500D01*
X296000Y399750D02*
X296250Y399500D01*
Y381343D02*
X298250Y379343D01*
Y373308D02*
Y379343D01*
X341250Y322750D02*
Y323500D01*
X310872Y353878D02*
X341250Y323500D01*
X310872Y353878D02*
Y360686D01*
X298250Y373308D02*
X310872Y360686D01*
X240750Y417500D02*
X292500Y469250D01*
X222500Y414500D02*
X224413Y416413D01*
X228757D01*
X229843Y417500D01*
X240750D01*
X292500Y469250D02*
X417250D01*
X61000Y315500D02*
X220500D01*
X60750Y315750D02*
X61000Y315500D01*
X220500D02*
X227058Y322058D01*
X230750Y326044D02*
Y328750D01*
X227058Y322352D02*
X230750Y326044D01*
X227058Y322058D02*
Y322352D01*
X362625Y355125D02*
X363750Y356250D01*
X362625Y322625D02*
Y355125D01*
X365000Y494250D02*
X379904Y509154D01*
X363000Y494250D02*
X365000D01*
X379904Y509154D02*
X381904D01*
X383817Y511067D01*
X296956Y423750D02*
X301206Y419500D01*
X360500D01*
X294250Y423750D02*
X296956D01*
X360500Y419500D02*
X376500Y403500D01*
Y393000D02*
Y403500D01*
X533000Y268500D02*
Y271250D01*
X537900Y246250D02*
Y263600D01*
X533000Y268500D02*
X537900Y263600D01*
X414875Y431750D02*
X415250D01*
X532000Y271500D02*
X533500Y273000D01*
X445625Y524750D02*
X449000D01*
X445625D02*
X449000D01*
X445625D02*
X449000D01*
X415250Y431750D02*
X444500Y402500D01*
X482500D01*
X533500Y351500D01*
Y273000D02*
Y351500D01*
X599750Y537250D02*
Y559250D01*
X599500Y559500D02*
X599750Y559250D01*
X598250Y560750D02*
X599500Y559500D01*
X598250Y560750D02*
X599500Y559500D01*
X599750Y559250D01*
X598250Y560750D02*
X599750Y559250D01*
X598250Y560750D02*
X599500Y559500D01*
X599750Y559250D01*
X550499Y321750D02*
Y323344D01*
X549750Y324093D02*
Y342750D01*
Y324093D02*
X550499Y323344D01*
Y321750D02*
X553499Y318750D01*
Y315250D02*
Y318750D01*
X549250Y376000D02*
Y381000D01*
X555998Y548748D02*
Y555998D01*
X558000Y558000D01*
X510696Y503446D02*
X555998Y548748D01*
X451304Y468726D02*
X486025Y503446D01*
X510696D01*
X549250Y376000D02*
X553500Y371750D01*
X549250Y376000D02*
X553500Y371750D01*
X549250Y376000D02*
X553500Y371750D01*
X455000Y432500D02*
X456000Y433500D01*
X496750D02*
X549250Y381000D01*
X456000Y433500D02*
X496750D01*
X52500Y430750D02*
X91667D01*
X93257Y432339D01*
X30250Y408500D02*
X52500Y430750D01*
X585500Y230250D02*
X585750Y230000D01*
X585250Y230500D02*
X585750Y230000D01*
X585500Y230250D02*
X585750Y230000D01*
X585250Y230500D02*
X585500Y230250D01*
X585250Y230500D02*
X585500Y230250D01*
X585250Y230500D02*
X585750Y230000D01*
X585250Y230500D02*
X585750Y230000D01*
X585250Y230500D02*
X585750Y230000D01*
X552250Y157750D02*
X553375Y158875D01*
X552250Y157750D02*
X554000Y159500D01*
X554850D01*
X553375Y158875D02*
X554000Y159500D01*
X494500Y141000D02*
X494875Y141375D01*
X494500Y141000D02*
X496000Y142500D01*
X494500Y141000D02*
X494875Y141375D01*
X494500Y141000D02*
X496000Y142500D01*
X494500Y141000D02*
X496000Y142500D01*
X494500Y141000D02*
X496000Y142500D01*
X494875Y141375D02*
X496000Y142500D01*
X494875Y141375D02*
X496000Y142500D01*
X504000Y162000D02*
X515750D01*
X536900Y192900D02*
X537575Y193575D01*
X536900Y192900D02*
X537575Y193575D01*
X536900Y192900D02*
X538000Y194000D01*
X536900Y192900D02*
X537575Y193575D01*
X538000Y194000D01*
X537575Y193575D02*
X538000Y194000D01*
X536900Y192900D02*
X538000Y194000D01*
X536900Y192900D02*
X538000Y194000D01*
X536900Y192900D02*
X538000Y194000D01*
X537575Y193575D02*
X538000Y194000D01*
X539750Y559750D02*
Y588750D01*
Y559750D02*
Y611750D01*
Y559750D02*
Y611750D01*
Y588750D02*
Y611750D01*
X539875Y611875D01*
X539750Y611750D02*
X540250Y612250D01*
X539750Y559750D02*
Y611750D01*
Y588750D02*
Y611750D01*
Y559750D02*
Y588750D01*
Y611750D02*
X539875Y611875D01*
X539750Y559750D02*
Y611750D01*
X539875Y611875D01*
X539750Y611750D02*
X540250Y612250D01*
X539750Y611750D02*
X540250Y612250D01*
X539750Y611750D02*
X540250Y612250D01*
X539875Y611875D02*
X540250Y612250D01*
X581000Y560000D02*
Y613000D01*
Y589000D02*
Y612501D01*
Y560000D02*
Y613000D01*
Y560000D02*
Y589000D01*
Y560000D02*
Y613000D01*
Y560000D02*
Y589000D01*
Y560000D02*
Y613000D01*
Y612501D02*
Y613000D01*
Y612501D02*
Y613000D01*
Y589000D02*
Y612501D01*
X82500Y26750D02*
X117000D01*
X82500D02*
X117000D01*
X593500Y371250D02*
X594000Y370750D01*
X593500Y371250D02*
X594000Y370750D01*
X593500Y371250D02*
X594000Y370750D01*
X593500Y371250D02*
X594000Y370750D01*
X593500Y371250D02*
X593875Y370875D01*
X594000Y370750D01*
X108500Y655500D02*
X108750Y655750D01*
X108500Y655500D02*
X110250Y657250D01*
X99750Y552250D02*
Y605000D01*
Y552250D02*
Y605000D01*
X118750Y552500D02*
X119250Y552000D01*
X118750Y552500D02*
X119250Y552000D01*
X118750Y552500D02*
X119250Y552000D01*
X118875Y552375D02*
X119250Y552000D01*
X99750Y552250D02*
Y605000D01*
X108750Y655750D02*
X110250Y657250D01*
X108500Y655500D02*
X108750Y655750D01*
X108500Y655500D02*
X108750Y655750D01*
X593500Y371250D02*
X593875Y370875D01*
X594000Y370750D01*
X82500Y26750D02*
X117000D01*
X581000Y612501D02*
Y613000D01*
Y560000D02*
Y589000D01*
Y612501D01*
X539875Y611875D02*
X540250Y612250D01*
X539750Y611750D02*
X539875Y611875D01*
X539750Y559750D02*
Y588750D01*
Y611750D01*
X539875Y611875D01*
X537575Y193575D02*
X538000Y194000D01*
X537575Y193575D02*
X538000Y194000D01*
X536900Y192900D02*
X537575Y193575D01*
X537575Y193575D02*
X537575Y193575D01*
X536900Y192900D02*
X537575Y193575D01*
X536900Y192900D02*
X537575Y193575D01*
X494875Y141375D02*
X496000Y142500D01*
X494500Y141000D02*
X494875Y141375D01*
X553375Y158875D02*
X554000Y159500D01*
X552250Y157750D02*
X553375Y158875D01*
X548750Y132500D02*
Y158500D01*
X585250Y230500D02*
X585500Y230250D01*
X585750Y230000D01*
X108750Y655750D02*
X110250Y657250D01*
X593875Y370875D02*
X594000Y370750D01*
X568500Y108250D02*
X569750Y109499D01*
Y132500D01*
X550350Y160751D02*
Y193169D01*
X552000Y157750D02*
X552250D01*
X506500Y522750D02*
X507000Y522250D01*
X506500Y522750D02*
Y537500D01*
X420250Y623750D02*
X506500Y537500D01*
X99500Y605250D02*
X99750Y605000D01*
X127500Y627500D02*
X140750Y614250D01*
X110001Y627500D02*
X127500D01*
X113250Y63500D02*
X117000Y59750D01*
Y27750D02*
Y59750D01*
X362000Y322000D02*
X362625Y322625D01*
X30250Y346250D02*
X60750Y315750D01*
X509000Y193250D02*
X525200D01*
X507875Y192125D02*
X509000Y193250D01*
X30250Y346250D02*
Y408500D01*
X119250Y552000D02*
X138500D01*
X135000Y63250D02*
Y69250D01*
X112250Y86343D02*
Y87750D01*
X113200Y85393D02*
X118857D01*
X112250Y86343D02*
X113200Y85393D01*
X135000Y63250D02*
X138000Y60249D01*
X118857Y85393D02*
X135000Y69250D01*
X108500Y629001D02*
X110001Y627500D01*
X108500Y629001D02*
Y655500D01*
X593500Y371250D02*
X593875Y370875D01*
X539875Y611875D02*
X540250Y612250D01*
X592125Y427625D02*
X592750Y427000D01*
X592375Y315125D02*
X592750Y314750D01*
X571875Y427625D02*
X592125D01*
X571750Y427750D02*
X571875Y427625D01*
X572625Y315125D02*
X592375D01*
X571250Y371500D02*
X571500Y371250D01*
X593500D01*
X572499Y315250D02*
X572625Y315125D01*
X496000Y142500D02*
Y154000D01*
X504000Y162000D01*
X520250Y164500D02*
Y166500D01*
X536900Y183150D02*
Y192900D01*
X517750Y162000D02*
X520250Y164500D01*
Y166500D02*
X536900Y183150D01*
X550600Y194350D02*
Y246250D01*
X585750Y212000D02*
Y230000D01*
X575800Y229750D02*
X581000D01*
X563300Y242250D02*
X575800Y229750D01*
X563300Y242250D02*
Y246250D01*
X68750Y60820D02*
X72180Y64250D01*
X92750D01*
X580750Y559750D02*
X581000Y560000D01*
Y613000D02*
X581250Y613250D01*
X539500Y559500D02*
X539750Y559750D01*
D60*
X559731Y657500D02*
X580729Y636501D01*
X590750D01*
X518750Y657500D02*
X559731D01*
X522344Y635984D02*
X522579Y635750D01*
X518750Y636750D02*
X519515Y635984D01*
X522579Y635750D02*
X549500D01*
X519515Y635984D02*
X522344D01*
D61*
X473900Y450300D02*
D03*
X465450Y301400D02*
D03*
X230950Y448150D02*
D03*
X361450Y153900D02*
D03*
X346900Y526500D02*
D03*
X234450Y153900D02*
D03*
X285250D02*
D03*
X310650D02*
D03*
X346900Y450300D02*
D03*
X321500Y526500D02*
D03*
X313050Y377600D02*
D03*
X78550Y524350D02*
D03*
X209050Y230100D02*
D03*
X285250D02*
D03*
X361450D02*
D03*
X310650D02*
D03*
X234450D02*
D03*
X336050Y153900D02*
D03*
X259850D02*
D03*
X336050Y230100D02*
D03*
X259850D02*
D03*
X180150Y448150D02*
D03*
X397700Y526500D02*
D03*
X205550Y448150D02*
D03*
X372300Y450300D02*
D03*
X423100Y526500D02*
D03*
X338450Y301400D02*
D03*
X129350Y448150D02*
D03*
X423100Y450300D02*
D03*
X473900Y526500D02*
D03*
X372300D02*
D03*
X448500Y450300D02*
D03*
X397700D02*
D03*
X448500Y526500D02*
D03*
X440050Y301400D02*
D03*
X414650D02*
D03*
X389250D02*
D03*
X414650Y377600D02*
D03*
X440050D02*
D03*
X389250D02*
D03*
X465450D02*
D03*
X363850D02*
D03*
X338450D02*
D03*
X363850Y301400D02*
D03*
X154750Y448150D02*
D03*
X103950D02*
D03*
Y524350D02*
D03*
X129350D02*
D03*
X154750D02*
D03*
X180150D02*
D03*
X205550D02*
D03*
X230950D02*
D03*
D62*
X250650Y376750D02*
D03*
X199850Y300550D02*
D03*
X174450Y376750D02*
D03*
X149050D02*
D03*
Y300550D02*
D03*
X72850Y376750D02*
D03*
X174450Y300550D02*
D03*
X123650D02*
D03*
X250650D02*
D03*
X225250Y376750D02*
D03*
X123650D02*
D03*
X199850D02*
D03*
X225250Y300550D02*
D03*
X98250Y376750D02*
D03*
Y300550D02*
D03*
D63*
X72850D02*
D03*
D64*
X209050Y153900D02*
D03*
X78550Y448150D02*
D03*
X313050Y301400D02*
D03*
X321500Y450300D02*
D03*
D65*
X179250Y695250D02*
D03*
D66*
X565000Y494750D02*
D03*
X539600D02*
D03*
D67*
X301250Y575250D02*
D03*
X179250D02*
D03*
X301250Y695250D02*
D03*
D68*
X159250Y635250D02*
D03*
D69*
X584750Y669250D02*
D03*
Y30500D02*
D03*
X34500D02*
D03*
Y669250D02*
D03*
M02*
