G04*
G04 #@! TF.GenerationSoftware,Altium Limited,Altium Designer,25.8.1 (18)*
G04*
G04 Layer_Physical_Order=2*
G04 Layer_Color=16711680*
%FSLAX44Y44*%
%MOMM*%
G71*
G04*
G04 #@! TF.SameCoordinates,DC2B5BAD-EA03-42BE-BCCD-12A4486FAF28*
G04*
G04*
G04 #@! TF.FilePolarity,Positive*
G04*
G01*
G75*
%ADD36C,1.4000*%
%ADD40R,1.4000X1.4000*%
%ADD56C,0.4000*%
%ADD57C,0.5000*%
%ADD58C,1.0000*%
%ADD59C,1.5000*%
%ADD60R,1.5000X1.5000*%
%ADD61R,1.6764X1.6764*%
%ADD62C,1.6764*%
%ADD63R,1.9800X1.9800*%
%ADD64C,1.5500*%
%ADD65C,1.9800*%
%ADD66C,1.9350*%
%ADD67C,1.5240*%
G36*
X613761Y718741D02*
X617355Y717252D01*
X620590Y715091D01*
X623341Y712340D01*
X625502Y709105D01*
X626991Y705511D01*
X627750Y701695D01*
Y699750D01*
Y630563D01*
X622750Y628492D01*
X622608Y628634D01*
X620432Y629890D01*
X618750Y630341D01*
Y621000D01*
Y611659D01*
X620432Y612110D01*
X622608Y613366D01*
X622750Y613508D01*
X627750Y611437D01*
Y296635D01*
X624143Y293271D01*
X624143Y293271D01*
Y293271D01*
X622750Y293088D01*
X622390Y294432D01*
X621134Y296607D01*
X619358Y298384D01*
X617182Y299640D01*
X615500Y300090D01*
Y290750D01*
Y281409D01*
X617182Y281860D01*
X619358Y283116D01*
X621134Y284892D01*
X622390Y287068D01*
X622750Y288412D01*
X624143Y288228D01*
Y288228D01*
X624143Y288228D01*
X627750Y284864D01*
Y20750D01*
Y18756D01*
X626972Y14843D01*
X625445Y11158D01*
X623229Y7841D01*
X620409Y5021D01*
X617092Y2805D01*
X613407Y1278D01*
X609494Y500D01*
X22305D01*
X18489Y1259D01*
X14895Y2748D01*
X11660Y4909D01*
X8909Y7660D01*
X6748Y10895D01*
X5259Y14489D01*
X4500Y18305D01*
Y20250D01*
X4750Y699750D01*
Y701695D01*
X5509Y705511D01*
X6998Y709105D01*
X9159Y712340D01*
X11910Y715091D01*
X15145Y717252D01*
X18739Y718741D01*
X22555Y719500D01*
X609945D01*
X613761Y718741D01*
D02*
G37*
%LPC*%
G36*
X193150Y709150D02*
X165350D01*
Y690001D01*
X164716Y689367D01*
X151670D01*
X151302Y690004D01*
X149254Y692052D01*
X146746Y693500D01*
X143948Y694250D01*
X141052D01*
X138254Y693500D01*
X135746Y692052D01*
X133698Y690004D01*
X132250Y687496D01*
X131500Y684698D01*
Y681802D01*
X132250Y679004D01*
X133698Y676496D01*
X135746Y674448D01*
X138254Y672999D01*
X141052Y672250D01*
X143948D01*
X146746Y672999D01*
X149254Y674448D01*
X151302Y676496D01*
X151670Y677132D01*
X167250D01*
X169591Y677598D01*
X171576Y678924D01*
X174001Y681350D01*
X193150D01*
Y709150D01*
D02*
G37*
G36*
X586819Y690250D02*
X582682D01*
X578625Y689443D01*
X574803Y687860D01*
X571363Y685562D01*
X568438Y682637D01*
X566140Y679197D01*
X564557Y675375D01*
X563750Y671318D01*
Y667182D01*
X564557Y663124D01*
X566140Y659303D01*
X568438Y655863D01*
X571363Y652938D01*
X574803Y650640D01*
X578625Y649057D01*
X582682Y648250D01*
X586819D01*
X590876Y649057D01*
X594697Y650640D01*
X598137Y652938D01*
X601062Y655863D01*
X603360Y659303D01*
X604943Y663124D01*
X605750Y667182D01*
Y671318D01*
X604943Y675375D01*
X603360Y679197D01*
X601062Y682637D01*
X598137Y685562D01*
X594697Y687860D01*
X590876Y689443D01*
X586819Y690250D01*
D02*
G37*
G36*
X36568D02*
X32431D01*
X28374Y689443D01*
X24553Y687860D01*
X21113Y685562D01*
X18188Y682637D01*
X15890Y679197D01*
X14307Y675375D01*
X13500Y671318D01*
Y667182D01*
X14307Y663124D01*
X15890Y659303D01*
X18188Y655863D01*
X21113Y652938D01*
X24553Y650640D01*
X28374Y649057D01*
X32431Y648250D01*
X36568D01*
X40625Y649057D01*
X44447Y650640D01*
X47887Y652938D01*
X50812Y655863D01*
X53110Y659303D01*
X54693Y663124D01*
X55500Y667182D01*
Y671318D01*
X54693Y675375D01*
X53110Y679197D01*
X50812Y682637D01*
X47887Y685562D01*
X44447Y687860D01*
X40625Y689443D01*
X36568Y690250D01*
D02*
G37*
G36*
X303080Y709150D02*
X299420D01*
X295885Y708203D01*
X292715Y706373D01*
X290127Y703785D01*
X288297Y700615D01*
X287350Y697080D01*
Y693420D01*
X288297Y689885D01*
X290127Y686715D01*
X292715Y684127D01*
X295885Y682297D01*
X299420Y681350D01*
X303080D01*
X306615Y682297D01*
X309785Y684127D01*
X311830Y686172D01*
X412990D01*
X436172Y662990D01*
Y631675D01*
X434479Y630451D01*
X429052Y630504D01*
X427004Y632552D01*
X424496Y634000D01*
X421698Y634750D01*
X418802D01*
X416004Y634000D01*
X413496Y632552D01*
X411448Y630504D01*
X410462Y628796D01*
X407750Y628359D01*
X405038Y628796D01*
X404052Y630504D01*
X402004Y632552D01*
X399496Y634000D01*
X397230Y634607D01*
X366169Y665669D01*
X364289Y667111D01*
X362099Y668018D01*
X359750Y668327D01*
X183250D01*
X180900Y668018D01*
X178711Y667111D01*
X176831Y665669D01*
X160087Y648925D01*
X157450D01*
X153972Y647993D01*
X150853Y646193D01*
X148307Y643647D01*
X146507Y640528D01*
X145575Y637050D01*
Y633450D01*
X146507Y629972D01*
X147138Y628878D01*
X146596Y627770D01*
X143690Y624851D01*
X142198Y625250D01*
X139302D01*
X136504Y624501D01*
X133996Y623052D01*
X131948Y621004D01*
X130500Y618496D01*
X129750Y615698D01*
Y612802D01*
X130500Y610004D01*
X131948Y607496D01*
X133996Y605448D01*
X136504Y604000D01*
X139302Y603250D01*
X142198D01*
X142711Y603388D01*
X166125Y579973D01*
X165350Y577080D01*
Y573420D01*
X166297Y569885D01*
X168127Y566715D01*
X170715Y564127D01*
X173885Y562297D01*
X177420Y561350D01*
X181080D01*
X184615Y562297D01*
X187785Y564127D01*
X190373Y566715D01*
X192203Y569885D01*
X193150Y573420D01*
Y577080D01*
X192203Y580615D01*
X190373Y583785D01*
X187785Y586373D01*
X184615Y588203D01*
X181080Y589150D01*
X177420D01*
X174921Y588480D01*
X151507Y611894D01*
X151750Y612802D01*
Y615698D01*
X151015Y618440D01*
X151242Y618822D01*
X153000Y621195D01*
X154547Y622353D01*
X157450Y621575D01*
X161050D01*
X164528Y622507D01*
X167647Y624307D01*
X170193Y626853D01*
X171993Y629972D01*
X172925Y633450D01*
Y636087D01*
X187010Y650172D01*
X355990D01*
X366778Y639384D01*
X366254Y635738D01*
X365425Y633666D01*
X363496Y632552D01*
X361447Y630504D01*
X361333Y630306D01*
X291750D01*
X290053Y630083D01*
X289239Y629745D01*
X288472Y629428D01*
X287114Y628386D01*
X262114Y603386D01*
X261072Y602028D01*
X260417Y600447D01*
X260194Y598750D01*
Y560343D01*
X260417Y558647D01*
X261072Y557065D01*
X262114Y555708D01*
X295957Y521864D01*
X297315Y520822D01*
X298896Y520167D01*
X300940Y517102D01*
X301224Y516477D01*
X301495Y514987D01*
X301167Y514197D01*
X300944Y512500D01*
Y436479D01*
X301167Y434782D01*
X299484Y432264D01*
X297861Y430869D01*
X297692Y430769D01*
X297265Y430884D01*
X294369D01*
X291571Y430134D01*
X290903Y429748D01*
X271868Y448784D01*
Y517500D01*
X271402Y519841D01*
X270076Y521826D01*
X242326Y549576D01*
X240341Y550902D01*
X238000Y551368D01*
X149500D01*
Y553448D01*
X148750Y556246D01*
X147302Y558754D01*
X145254Y560802D01*
X142746Y562250D01*
X139948Y563000D01*
X137052D01*
X134254Y562250D01*
X131746Y560802D01*
X129698Y558754D01*
X128250Y556246D01*
X127500Y553448D01*
Y550552D01*
X128250Y547754D01*
X129698Y545246D01*
X131746Y543198D01*
X134254Y541750D01*
X137052Y541000D01*
X139948D01*
X140658Y541190D01*
X140924Y540924D01*
X142909Y539598D01*
X145250Y539133D01*
X147354D01*
X148694Y534133D01*
X147689Y533552D01*
X145548Y531411D01*
X144830Y530168D01*
X143436Y529765D01*
X140664D01*
X139270Y530168D01*
X138552Y531411D01*
X136411Y533552D01*
X133789Y535066D01*
X130864Y535850D01*
X127836D01*
X124911Y535066D01*
X122289Y533552D01*
X120148Y531411D01*
X119430Y530168D01*
X118036Y529765D01*
X115264D01*
X113870Y530168D01*
X113152Y531411D01*
X111011Y533552D01*
X108389Y535066D01*
X105464Y535850D01*
X102436D01*
X99511Y535066D01*
X96889Y533552D01*
X94748Y531411D01*
X94030Y530168D01*
X92636Y529765D01*
X89864D01*
X88470Y530168D01*
X87752Y531411D01*
X85611Y533552D01*
X82989Y535066D01*
X80064Y535850D01*
X78986D01*
X73176Y541660D01*
X73750Y543802D01*
Y546698D01*
X73000Y549496D01*
X71552Y552004D01*
X69504Y554052D01*
X66996Y555500D01*
X64198Y556250D01*
X61302D01*
X58504Y555500D01*
X55996Y554052D01*
X53948Y552004D01*
X52500Y549496D01*
X51750Y546698D01*
Y543802D01*
X52500Y541004D01*
X53948Y538496D01*
X55996Y536448D01*
X58504Y535000D01*
X61302Y534250D01*
X62043D01*
X67764Y528529D01*
X67050Y525864D01*
Y522836D01*
X67834Y519911D01*
X69348Y517289D01*
X71489Y515148D01*
X74111Y513634D01*
X77036Y512850D01*
X80064D01*
X82989Y513634D01*
X85611Y515148D01*
X87752Y517289D01*
X88470Y518531D01*
X89864Y518935D01*
X92636D01*
X94030Y518531D01*
X94748Y517289D01*
X96889Y515148D01*
X99511Y513634D01*
X102436Y512850D01*
X105464D01*
X108389Y513634D01*
X111011Y515148D01*
X113152Y517289D01*
X113870Y518531D01*
X115264Y518935D01*
X118036D01*
X119430Y518531D01*
X120148Y517289D01*
X122289Y515148D01*
X124911Y513634D01*
X127836Y512850D01*
X130864D01*
X133789Y513634D01*
X136411Y515148D01*
X138552Y517289D01*
X139270Y518531D01*
X140664Y518935D01*
X143436D01*
X144830Y518531D01*
X145548Y517289D01*
X147689Y515148D01*
X150311Y513634D01*
X153236Y512850D01*
X156264D01*
X159189Y513634D01*
X161811Y515148D01*
X163952Y517289D01*
X164670Y518531D01*
X166064Y518935D01*
X168836D01*
X170230Y518531D01*
X170948Y517289D01*
X173089Y515148D01*
X175711Y513634D01*
X178636Y512850D01*
X181664D01*
X184589Y513634D01*
X187211Y515148D01*
X189352Y517289D01*
X190070Y518531D01*
X191464Y518935D01*
X194236D01*
X195630Y518531D01*
X196348Y517289D01*
X198489Y515148D01*
X201111Y513634D01*
X204036Y512850D01*
X207064D01*
X209989Y513634D01*
X212611Y515148D01*
X214752Y517289D01*
X215470Y518531D01*
X216864Y518935D01*
X219636D01*
X221030Y518531D01*
X221748Y517289D01*
X223889Y515148D01*
X226511Y513634D01*
X229436Y512850D01*
X232464D01*
X235389Y513634D01*
X238011Y515148D01*
X240152Y517289D01*
X241666Y519911D01*
X242450Y522836D01*
Y525078D01*
X244364Y526471D01*
X247221Y527378D01*
X259632Y514966D01*
Y446250D01*
X260098Y443909D01*
X260282Y443634D01*
X257361Y439118D01*
X242835D01*
X240215Y444118D01*
X240306Y444275D01*
X240808Y446150D01*
X230950D01*
Y448150D01*
X228950D01*
Y458008D01*
X227075Y457506D01*
X224785Y456184D01*
X222916Y454315D01*
X221594Y452025D01*
X221594Y452024D01*
X216418D01*
X216266Y452589D01*
X214752Y455211D01*
X212611Y457352D01*
X209989Y458866D01*
X207064Y459650D01*
X204036D01*
X201111Y458866D01*
X198489Y457352D01*
X196348Y455211D01*
X195630Y453969D01*
X194236Y453565D01*
X191464D01*
X190070Y453969D01*
X189352Y455211D01*
X187211Y457352D01*
X184589Y458866D01*
X181664Y459650D01*
X178636D01*
X175711Y458866D01*
X173089Y457352D01*
X170948Y455211D01*
X170230Y453969D01*
X168836Y453565D01*
X166064D01*
X164670Y453969D01*
X163952Y455211D01*
X161811Y457352D01*
X159189Y458866D01*
X156264Y459650D01*
X153236D01*
X150311Y458866D01*
X147689Y457352D01*
X145548Y455211D01*
X144830Y453969D01*
X143436Y453565D01*
X140664D01*
X139270Y453969D01*
X138552Y455211D01*
X136411Y457352D01*
X133789Y458866D01*
X130864Y459650D01*
X128252D01*
X117576Y470326D01*
X115591Y471652D01*
X113250Y472118D01*
X84180D01*
X82266Y476098D01*
X82014Y477118D01*
X83140Y479068D01*
X83591Y480750D01*
X64909D01*
X65360Y479068D01*
X66486Y477118D01*
X66234Y476098D01*
X64320Y472118D01*
X55593D01*
X53252Y471652D01*
X51267Y470326D01*
X33174Y452232D01*
X32513Y451243D01*
X31848Y450248D01*
X31383Y447907D01*
Y352750D01*
X31848Y350409D01*
X33174Y348424D01*
X58674Y322924D01*
X60659Y321598D01*
X63000Y321133D01*
X94200D01*
X97514Y317416D01*
X97090Y315289D01*
X95773Y312705D01*
X93471Y312088D01*
X90647Y310458D01*
X88772Y308583D01*
X86900Y308811D01*
X83772Y310237D01*
Y311472D01*
X74850D01*
Y300550D01*
Y289628D01*
X83772D01*
Y290863D01*
X86900Y292290D01*
X88772Y292517D01*
X90647Y290642D01*
X93471Y289012D01*
X96620Y288168D01*
X99880D01*
X101537Y288612D01*
X112725Y277424D01*
X114709Y276098D01*
X117050Y275632D01*
X122831D01*
X134783Y263681D01*
Y260434D01*
X132216Y257868D01*
X129938D01*
X128504Y259302D01*
X125996Y260750D01*
X123198Y261500D01*
X120302D01*
X117504Y260750D01*
X114996Y259302D01*
X112948Y257254D01*
X111500Y254746D01*
X110750Y251948D01*
Y249052D01*
X111500Y246254D01*
X112948Y243746D01*
X114996Y241698D01*
X117504Y240250D01*
X120302Y239500D01*
X123198D01*
X125996Y240250D01*
X128504Y241698D01*
X130552Y243746D01*
X131641Y245633D01*
X134750D01*
X137091Y246098D01*
X139076Y247424D01*
X140900Y249249D01*
X144225Y245924D01*
X146209Y244598D01*
X148550Y244132D01*
X158748D01*
X159492Y243671D01*
X162366Y239132D01*
X162250Y238698D01*
Y235802D01*
X162999Y233004D01*
X164448Y230496D01*
X166496Y228448D01*
X169004Y227000D01*
X171802Y226250D01*
X174698D01*
X176840Y226824D01*
X178199Y225464D01*
X179557Y224422D01*
X181138Y223768D01*
X182835Y223544D01*
X199556D01*
X199848Y223039D01*
X201989Y220898D01*
X204611Y219384D01*
X207536Y218600D01*
X210564D01*
X213489Y219384D01*
X216111Y220898D01*
X218252Y223039D01*
X218970Y224282D01*
X220364Y224686D01*
X223136D01*
X224530Y224282D01*
X225248Y223039D01*
X227389Y220898D01*
X228632Y220180D01*
Y197250D01*
X229098Y194909D01*
X230424Y192924D01*
X253733Y169616D01*
Y163647D01*
X252789Y163102D01*
X250648Y160961D01*
X249930Y159719D01*
X248536Y159315D01*
X245765D01*
X244370Y159719D01*
X243652Y160961D01*
X241511Y163102D01*
X238889Y164616D01*
X235964Y165400D01*
X232936D01*
X230011Y164616D01*
X227389Y163102D01*
X225550Y161264D01*
X224193Y161380D01*
X220550Y162824D01*
Y165400D01*
X199750D01*
Y167448D01*
X199000Y170246D01*
X197552Y172754D01*
X195504Y174802D01*
X192996Y176250D01*
X190198Y177000D01*
X187302D01*
X184504Y176250D01*
X181996Y174802D01*
X179948Y172754D01*
X178500Y170246D01*
X177750Y167448D01*
Y164552D01*
X178500Y161754D01*
X179948Y159246D01*
X181996Y157198D01*
X184504Y155750D01*
X187302Y155000D01*
X190198D01*
X190908Y155190D01*
X193568Y152531D01*
X195552Y151205D01*
X197550Y150807D01*
Y142400D01*
X220550D01*
Y144976D01*
X224193Y146421D01*
X225550Y146537D01*
X227389Y144698D01*
X230011Y143184D01*
X232936Y142400D01*
X235964D01*
X237017Y142682D01*
X241393Y138306D01*
X239322Y133306D01*
X187299D01*
X185500Y135106D01*
Y136198D01*
X184750Y138996D01*
X183302Y141504D01*
X181254Y143552D01*
X178746Y145000D01*
X175948Y145750D01*
X173052D01*
X170254Y145000D01*
X167746Y143552D01*
X165698Y141504D01*
X164250Y138996D01*
X163500Y136198D01*
Y133302D01*
X164250Y130504D01*
X165698Y127996D01*
X167746Y125948D01*
X169444Y124967D01*
Y52466D01*
X158169Y41191D01*
X157948Y41250D01*
X155052D01*
X152254Y40500D01*
X149746Y39052D01*
X147698Y37004D01*
X146250Y34496D01*
X145500Y31698D01*
Y28802D01*
X146250Y26004D01*
X147698Y23496D01*
X149746Y21448D01*
X152254Y20000D01*
X155052Y19250D01*
X157948D01*
X160746Y20000D01*
X163254Y21448D01*
X165302Y23496D01*
X166750Y26004D01*
X167500Y28802D01*
Y31698D01*
X167441Y31919D01*
X180636Y45114D01*
X181678Y46472D01*
X182333Y48053D01*
X182556Y49750D01*
Y79848D01*
X184000Y84250D01*
X206000D01*
Y91320D01*
X211000Y91978D01*
X211110Y91568D01*
X212366Y89392D01*
X214142Y87616D01*
X216317Y86360D01*
X218000Y85909D01*
Y95250D01*
Y104591D01*
X216317Y104140D01*
X214142Y102884D01*
X212366Y101108D01*
X211110Y98932D01*
X211000Y98522D01*
X206000Y99180D01*
Y106250D01*
X206000Y106250D01*
X206992Y110839D01*
X207250Y111802D01*
Y114698D01*
X207117Y115194D01*
X209942Y119698D01*
X210716Y120194D01*
X232284D01*
X233058Y119698D01*
X235883Y115194D01*
X235750Y114698D01*
Y111802D01*
X236500Y109004D01*
X237948Y106496D01*
X236198Y102004D01*
X234749Y99496D01*
X234332Y97938D01*
X229198Y97780D01*
X228889Y98932D01*
X227633Y101108D01*
X225857Y102884D01*
X223682Y104140D01*
X222000Y104591D01*
Y95250D01*
Y85909D01*
X223682Y86360D01*
X225857Y87616D01*
X227633Y89392D01*
X228889Y91568D01*
X229198Y92720D01*
X234332Y92562D01*
X234749Y91004D01*
X236198Y88496D01*
X238246Y86448D01*
X240754Y85000D01*
X243552Y84250D01*
X246448D01*
X249246Y85000D01*
X251754Y86448D01*
X253802Y88496D01*
X254788Y90203D01*
X257500Y90641D01*
X260212Y90203D01*
X261197Y88496D01*
X263245Y86448D01*
X265754Y85000D01*
X267730Y84470D01*
X267802Y79500D01*
X265004Y78750D01*
X262496Y77302D01*
X260448Y75254D01*
X259000Y72746D01*
X258250Y69948D01*
Y67052D01*
X259000Y64254D01*
X260448Y61746D01*
X262496Y59698D01*
X265004Y58249D01*
X267802Y57500D01*
X270698D01*
X273496Y58249D01*
X276004Y59698D01*
X278052Y61746D01*
X279501Y64254D01*
X280250Y67052D01*
Y69948D01*
X279716Y71940D01*
X292349Y84572D01*
X293552Y84250D01*
X296448D01*
X297158Y84440D01*
X325174Y56424D01*
X327158Y55098D01*
X329500Y54633D01*
X467557D01*
X469898Y55098D01*
X471883Y56424D01*
X471940Y56481D01*
X472802Y56250D01*
X475698D01*
X478496Y57000D01*
X481004Y58448D01*
X483052Y60496D01*
X484500Y63004D01*
X485250Y65802D01*
Y68698D01*
X484500Y71496D01*
X483052Y74004D01*
X481004Y76052D01*
X478496Y77500D01*
X475698Y78250D01*
X472802D01*
X470004Y77500D01*
X467496Y76052D01*
X465448Y74004D01*
X464000Y71496D01*
X463250Y68698D01*
Y66868D01*
X332033D01*
X317954Y80947D01*
X318061Y81588D01*
X320262Y85710D01*
X321256D01*
X323682Y86360D01*
X325858Y87616D01*
X327634Y89392D01*
X328890Y91568D01*
X329341Y93250D01*
X320000D01*
Y95250D01*
X318000D01*
Y104591D01*
X316318Y104140D01*
X314142Y102884D01*
X312366Y101108D01*
X311110Y98932D01*
X310801Y97780D01*
X305667Y97938D01*
X305250Y99496D01*
X303802Y102004D01*
X301754Y104052D01*
X299245Y105500D01*
X296448Y106250D01*
X293552D01*
X290754Y105500D01*
X288246Y104052D01*
X286197Y102004D01*
X285212Y100297D01*
X282500Y99859D01*
X279788Y100297D01*
X278802Y102004D01*
X276985Y104313D01*
X278927Y106496D01*
X280375Y109004D01*
X281125Y111802D01*
Y114698D01*
X280992Y115194D01*
X283817Y119698D01*
X284591Y120194D01*
X379840D01*
X381180Y115194D01*
X380642Y114884D01*
X378866Y113108D01*
X377610Y110932D01*
X377160Y109250D01*
X395841D01*
X395390Y110932D01*
X394134Y113108D01*
X392358Y114884D01*
X391821Y115194D01*
X393160Y120194D01*
X440917D01*
X442613Y120417D01*
X444195Y121072D01*
X445552Y122114D01*
X454188Y130750D01*
X456052Y130250D01*
X458948D01*
X461746Y131000D01*
X464254Y132448D01*
X466302Y134496D01*
X467751Y137004D01*
X468500Y139802D01*
Y142698D01*
X468441Y142919D01*
X499386Y173864D01*
X500428Y175222D01*
X501082Y176803D01*
X501306Y178500D01*
Y215583D01*
X501504Y215698D01*
X503250Y217444D01*
X542250D01*
X543947Y217667D01*
X545528Y218322D01*
X546886Y219364D01*
X585581Y258060D01*
X585802Y258000D01*
X588698D01*
X591496Y258750D01*
X594004Y260198D01*
X596052Y262246D01*
X597500Y264754D01*
X598250Y267552D01*
Y270448D01*
X598191Y270669D01*
X604636Y277114D01*
X605678Y278472D01*
X605679Y278476D01*
X608238Y280568D01*
X611424Y281429D01*
X611500Y281409D01*
Y290750D01*
Y300137D01*
X607473Y302436D01*
X606556Y303530D01*
Y338282D01*
X606333Y339979D01*
X605678Y341560D01*
X604636Y342918D01*
X601306Y346248D01*
Y393583D01*
X601504Y393698D01*
X603552Y395746D01*
X605000Y398254D01*
X605750Y401052D01*
Y403948D01*
X605000Y406746D01*
X603552Y409254D01*
X601504Y411302D01*
X598996Y412750D01*
X596198Y413500D01*
X593302D01*
X590504Y412750D01*
X587996Y411302D01*
X585948Y409254D01*
X584500Y406746D01*
X583750Y403948D01*
Y401052D01*
X584500Y398254D01*
X585948Y395746D01*
X587996Y393698D01*
X588194Y393583D01*
Y343532D01*
X588417Y341836D01*
X589072Y340254D01*
X590114Y338897D01*
X593444Y335567D01*
Y284466D01*
X588919Y279941D01*
X588698Y280000D01*
X585802D01*
X583004Y279251D01*
X580496Y277802D01*
X578448Y275754D01*
X577000Y273246D01*
X576250Y270448D01*
Y267552D01*
X576309Y267331D01*
X539534Y230556D01*
X503955D01*
X503552Y231254D01*
X501504Y233302D01*
X498996Y234750D01*
X496198Y235500D01*
X493302D01*
X491395Y234989D01*
X488537Y236378D01*
X486395Y238151D01*
Y266310D01*
X506571Y286487D01*
X507925Y286625D01*
X512542Y285387D01*
X512866Y284825D01*
X514642Y283049D01*
X516818Y281793D01*
X518500Y281342D01*
Y290683D01*
X520500D01*
Y292683D01*
X529841D01*
X529390Y294365D01*
X528134Y296540D01*
X526357Y298317D01*
X525796Y298641D01*
X524558Y303258D01*
X524696Y304611D01*
X529381Y309297D01*
X530708Y311282D01*
X531173Y313623D01*
Y345389D01*
X535680Y347272D01*
X537999Y344950D01*
X538750Y344135D01*
Y341302D01*
X539500Y338504D01*
X540948Y335996D01*
X542996Y333948D01*
X545504Y332500D01*
X548302Y331750D01*
X551198D01*
X553996Y332500D01*
X556504Y333948D01*
X558552Y335996D01*
X560000Y338504D01*
X560750Y341302D01*
Y344198D01*
X560000Y346996D01*
X558552Y349504D01*
X556504Y351552D01*
X553996Y353000D01*
X551198Y353750D01*
X548302D01*
X545868Y357944D01*
Y390080D01*
X547784Y391235D01*
X550868Y391891D01*
X551892Y390866D01*
X554068Y389610D01*
X555750Y389159D01*
Y398500D01*
Y407841D01*
X554068Y407390D01*
X551892Y406134D01*
X550868Y405109D01*
X547784Y405765D01*
X545868Y406920D01*
Y462750D01*
X545402Y465091D01*
X544076Y467076D01*
X530474Y480678D01*
X533544Y484679D01*
X535065Y483801D01*
X538053Y483000D01*
X541147D01*
X544136Y483801D01*
X546815Y485348D01*
X549002Y487535D01*
X549553Y488488D01*
X549796Y488582D01*
X554805D01*
X555047Y488488D01*
X555598Y487535D01*
X557785Y485348D01*
X560465Y483801D01*
X563453Y483000D01*
X566547D01*
X569535Y483801D01*
X572215Y485348D01*
X574403Y487535D01*
X575949Y490215D01*
X576750Y493203D01*
Y496297D01*
X575949Y499285D01*
X574403Y501964D01*
X572215Y504152D01*
X569535Y505699D01*
X566547Y506500D01*
X563453D01*
X560465Y505699D01*
X557785Y504152D01*
X555598Y501964D01*
X555047Y501011D01*
X554805Y500918D01*
X549796D01*
X549553Y501011D01*
X549002Y501964D01*
X546815Y504152D01*
X544136Y505699D01*
X541147Y506500D01*
X538053D01*
X536830Y506172D01*
X519591Y523411D01*
X519582Y525266D01*
X523536Y529383D01*
X592061D01*
X592996Y528448D01*
X595504Y527000D01*
X598302Y526250D01*
X601198D01*
X603996Y527000D01*
X606504Y528448D01*
X608552Y530496D01*
X610000Y533004D01*
X610750Y535802D01*
Y538698D01*
X610000Y541496D01*
X608552Y544004D01*
X606504Y546052D01*
X603996Y547500D01*
X601198Y548250D01*
X598302D01*
X595504Y547500D01*
X592996Y546052D01*
X590948Y544004D01*
X589570Y541618D01*
X482900D01*
X480559Y541152D01*
X478574Y539826D01*
X476466Y537718D01*
X475414Y538000D01*
X472386D01*
X469461Y537216D01*
X466839Y535702D01*
X464698Y533561D01*
X463980Y532318D01*
X462586Y531914D01*
X459814D01*
X458420Y532318D01*
X457702Y533561D01*
X455561Y535702D01*
X452939Y537216D01*
X450014Y538000D01*
X446986D01*
X445934Y537718D01*
X435575Y548076D01*
X433591Y549402D01*
X433591Y549402D01*
X431250Y549868D01*
X389550D01*
X387209Y549402D01*
X385224Y548076D01*
X374866Y537718D01*
X373814Y538000D01*
X370786D01*
X367861Y537216D01*
X365239Y535702D01*
X363098Y533561D01*
X362380Y532318D01*
X360986Y531914D01*
X358214D01*
X356820Y532318D01*
X356102Y533561D01*
X353961Y535702D01*
X351339Y537216D01*
X348414Y538000D01*
X345386D01*
X342461Y537216D01*
X339839Y535702D01*
X337698Y533561D01*
X336980Y532318D01*
X335586Y531914D01*
X332814D01*
X331420Y532318D01*
X330702Y533561D01*
X328561Y535702D01*
X325939Y537216D01*
X323014Y538000D01*
X319986D01*
X317061Y537216D01*
X314439Y535702D01*
X312298Y533561D01*
X312006Y533056D01*
X303309D01*
X273306Y563059D01*
Y596035D01*
X294466Y617194D01*
X361333D01*
X361447Y616996D01*
X363496Y614948D01*
X366004Y613499D01*
X368801Y612750D01*
X371698D01*
X374496Y613499D01*
X377004Y614948D01*
X379052Y616996D01*
X380038Y618703D01*
X382750Y619141D01*
X385462Y618703D01*
X386448Y616996D01*
X388496Y614948D01*
X391004Y613499D01*
X393802Y612750D01*
X396698D01*
X397576Y612985D01*
X400164Y608502D01*
X375990Y584328D01*
X311830D01*
X309785Y586373D01*
X306615Y588203D01*
X303080Y589150D01*
X299420D01*
X295885Y588203D01*
X292715Y586373D01*
X290127Y583785D01*
X288297Y580615D01*
X287350Y577080D01*
Y573420D01*
X288297Y569885D01*
X290127Y566715D01*
X292715Y564127D01*
X295885Y562297D01*
X299420Y561350D01*
X303080D01*
X306615Y562297D01*
X309785Y564127D01*
X311830Y566172D01*
X379750D01*
X382100Y566482D01*
X384289Y567389D01*
X386169Y568831D01*
X386169Y568831D01*
X425903Y608566D01*
X425903Y608566D01*
X427346Y610446D01*
X428253Y612635D01*
X428562Y614985D01*
Y616506D01*
X429052Y616996D01*
X430038Y618703D01*
X432750Y619141D01*
X435462Y618703D01*
X436448Y616996D01*
X438496Y614948D01*
X441004Y613499D01*
X443802Y612750D01*
X446698D01*
X449496Y613499D01*
X452004Y614948D01*
X454052Y616996D01*
X455038Y618703D01*
X457750Y619141D01*
X460462Y618703D01*
X461448Y616996D01*
X463496Y614948D01*
X466004Y613499D01*
X468802Y612750D01*
X471698D01*
X474496Y613499D01*
X477004Y614948D01*
X479052Y616996D01*
X479250Y617338D01*
X484250Y615998D01*
Y612750D01*
X506250D01*
Y625160D01*
X506327Y625750D01*
Y626132D01*
X507102Y626907D01*
X513799D01*
X514504Y626500D01*
X517302Y625750D01*
X520198D01*
X522996Y626500D01*
X525504Y627948D01*
X527552Y629996D01*
X529000Y632504D01*
X529750Y635302D01*
Y638198D01*
X529000Y640996D01*
X527552Y643504D01*
X527170Y643886D01*
X526049Y647125D01*
X527170Y650364D01*
X527552Y650746D01*
X529000Y653254D01*
X529750Y656052D01*
Y658948D01*
X529000Y661746D01*
X527552Y664254D01*
X525504Y666302D01*
X522996Y667750D01*
X520198Y668500D01*
X517302D01*
X514504Y667750D01*
X512040Y666328D01*
X489500D01*
X487151Y666018D01*
X484962Y665111D01*
X484961Y665111D01*
X483081Y663669D01*
X483081Y663669D01*
X463831Y644419D01*
X463831Y644419D01*
X462389Y642539D01*
X461482Y640350D01*
X461172Y638000D01*
Y632452D01*
X457750Y630272D01*
X454327Y632452D01*
Y666750D01*
X454018Y669100D01*
X453111Y671289D01*
X451669Y673169D01*
X423169Y701669D01*
X421289Y703111D01*
X419099Y704018D01*
X416750Y704327D01*
X311830D01*
X309785Y706373D01*
X306615Y708203D01*
X303080Y709150D01*
D02*
G37*
G36*
X614750Y630341D02*
X613068Y629890D01*
X610892Y628634D01*
X609116Y626858D01*
X607860Y624682D01*
X607410Y623000D01*
X614750D01*
Y630341D01*
D02*
G37*
G36*
Y619000D02*
X607410D01*
X607860Y617318D01*
X609116Y615142D01*
X610892Y613366D01*
X613068Y612110D01*
X614750Y611659D01*
Y619000D01*
D02*
G37*
G36*
X141000Y592091D02*
Y584750D01*
X148341D01*
X147890Y586432D01*
X146634Y588608D01*
X144858Y590384D01*
X142682Y591640D01*
X141000Y592091D01*
D02*
G37*
G36*
X137000D02*
X135318Y591640D01*
X133142Y590384D01*
X131366Y588608D01*
X130110Y586432D01*
X129659Y584750D01*
X137000D01*
Y592091D01*
D02*
G37*
G36*
X148341Y580750D02*
X141000D01*
Y573410D01*
X142682Y573860D01*
X144858Y575116D01*
X146634Y576893D01*
X147890Y579068D01*
X148341Y580750D01*
D02*
G37*
G36*
X137000D02*
X129659D01*
X130110Y579068D01*
X131366Y576893D01*
X133142Y575116D01*
X135318Y573860D01*
X137000Y573410D01*
Y580750D01*
D02*
G37*
G36*
X76250Y492091D02*
Y484750D01*
X83591D01*
X83140Y486432D01*
X81884Y488608D01*
X80108Y490384D01*
X77932Y491640D01*
X76250Y492091D01*
D02*
G37*
G36*
X72250D02*
X70568Y491640D01*
X68392Y490384D01*
X66616Y488608D01*
X65360Y486432D01*
X64909Y484750D01*
X72250D01*
Y492091D01*
D02*
G37*
G36*
X614250Y480841D02*
Y473500D01*
X621591D01*
X621140Y475182D01*
X619884Y477358D01*
X618108Y479134D01*
X615933Y480390D01*
X614250Y480841D01*
D02*
G37*
G36*
X610250D02*
X608568Y480390D01*
X606393Y479134D01*
X604616Y477358D01*
X603360Y475182D01*
X602910Y473500D01*
X610250D01*
Y480841D01*
D02*
G37*
G36*
X621591Y469500D02*
X614250D01*
Y462160D01*
X615933Y462610D01*
X618108Y463866D01*
X619884Y465643D01*
X621140Y467818D01*
X621591Y469500D01*
D02*
G37*
G36*
X610250D02*
X602910D01*
X603360Y467818D01*
X604616Y465643D01*
X606393Y463866D01*
X608568Y462610D01*
X610250Y462160D01*
Y469500D01*
D02*
G37*
G36*
X232950Y458008D02*
Y450150D01*
X240808D01*
X240306Y452025D01*
X238984Y454315D01*
X237115Y456184D01*
X234825Y457506D01*
X232950Y458008D01*
D02*
G37*
G36*
X559750Y407841D02*
Y400500D01*
X567091D01*
X566640Y402182D01*
X565384Y404358D01*
X563608Y406134D01*
X561432Y407390D01*
X559750Y407841D01*
D02*
G37*
G36*
X567091Y396500D02*
X559750D01*
Y389159D01*
X561432Y389610D01*
X563608Y390866D01*
X565384Y392642D01*
X566640Y394818D01*
X567091Y396500D01*
D02*
G37*
G36*
X70850Y311472D02*
X61928D01*
Y302550D01*
X70850D01*
Y311472D01*
D02*
G37*
G36*
Y298550D02*
X61928D01*
Y289628D01*
X70850D01*
Y298550D01*
D02*
G37*
G36*
X529841Y288683D02*
X522500D01*
Y281342D01*
X524182Y281793D01*
X526357Y283049D01*
X528134Y284825D01*
X529390Y287000D01*
X529841Y288683D01*
D02*
G37*
G36*
X72500Y284341D02*
Y277000D01*
X79841D01*
X79390Y278682D01*
X78134Y280858D01*
X76358Y282634D01*
X74182Y283890D01*
X72500Y284341D01*
D02*
G37*
G36*
X68500D02*
X66818Y283890D01*
X64642Y282634D01*
X62866Y280858D01*
X61610Y278682D01*
X61159Y277000D01*
X68500D01*
Y284341D01*
D02*
G37*
G36*
X79841Y273000D02*
X72500D01*
Y265659D01*
X74182Y266110D01*
X76358Y267366D01*
X78134Y269142D01*
X79390Y271318D01*
X79841Y273000D01*
D02*
G37*
G36*
X68500D02*
X61159D01*
X61610Y271318D01*
X62866Y269142D01*
X64642Y267366D01*
X66818Y266110D01*
X68500Y265659D01*
Y273000D01*
D02*
G37*
G36*
X80500Y192091D02*
Y184750D01*
X87841D01*
X87390Y186432D01*
X86134Y188608D01*
X84358Y190384D01*
X82183Y191640D01*
X80500Y192091D01*
D02*
G37*
G36*
X76500D02*
X74818Y191640D01*
X72642Y190384D01*
X70866Y188608D01*
X69610Y186432D01*
X69160Y184750D01*
X76500D01*
Y192091D01*
D02*
G37*
G36*
X87841Y180750D02*
X80500D01*
Y173409D01*
X82183Y173860D01*
X84358Y175116D01*
X86134Y176892D01*
X87390Y179068D01*
X87841Y180750D01*
D02*
G37*
G36*
X76500D02*
X69160D01*
X69610Y179068D01*
X70866Y176892D01*
X72642Y175116D01*
X74818Y173860D01*
X76500Y173409D01*
Y180750D01*
D02*
G37*
G36*
X595250Y180590D02*
Y173250D01*
X602591D01*
X602140Y174932D01*
X600884Y177108D01*
X599108Y178884D01*
X596932Y180140D01*
X595250Y180590D01*
D02*
G37*
G36*
X591250D02*
X589568Y180140D01*
X587392Y178884D01*
X585616Y177108D01*
X584360Y174932D01*
X583909Y173250D01*
X591250D01*
Y180590D01*
D02*
G37*
G36*
X129750Y174591D02*
Y167250D01*
X137091D01*
X136640Y168932D01*
X135384Y171108D01*
X133608Y172884D01*
X131432Y174140D01*
X129750Y174591D01*
D02*
G37*
G36*
X125750D02*
X124068Y174140D01*
X121892Y172884D01*
X120116Y171108D01*
X118860Y168932D01*
X118409Y167250D01*
X125750D01*
Y174591D01*
D02*
G37*
G36*
X602591Y169250D02*
X595250D01*
Y161909D01*
X596932Y162360D01*
X599108Y163616D01*
X600884Y165392D01*
X602140Y167568D01*
X602591Y169250D01*
D02*
G37*
G36*
X591250D02*
X583909D01*
X584360Y167568D01*
X585616Y165392D01*
X587392Y163616D01*
X589568Y162360D01*
X591250Y161909D01*
Y169250D01*
D02*
G37*
G36*
X137091Y163250D02*
X129750D01*
Y155909D01*
X131432Y156360D01*
X133608Y157616D01*
X135384Y159392D01*
X136640Y161568D01*
X137091Y163250D01*
D02*
G37*
G36*
X125750D02*
X118409D01*
X118860Y161568D01*
X120116Y159392D01*
X121892Y157616D01*
X124068Y156360D01*
X125750Y155909D01*
Y163250D01*
D02*
G37*
G36*
X535000Y157341D02*
Y150000D01*
X542341D01*
X541890Y151683D01*
X540634Y153858D01*
X538858Y155634D01*
X536683Y156890D01*
X535000Y157341D01*
D02*
G37*
G36*
X531000D02*
X529318Y156890D01*
X527142Y155634D01*
X525366Y153858D01*
X524110Y151683D01*
X523660Y150000D01*
X531000D01*
Y157341D01*
D02*
G37*
G36*
X542341Y146000D02*
X535000D01*
Y138660D01*
X536683Y139110D01*
X538858Y140366D01*
X540634Y142142D01*
X541890Y144318D01*
X542341Y146000D01*
D02*
G37*
G36*
X531000D02*
X523660D01*
X524110Y144318D01*
X525366Y142142D01*
X527142Y140366D01*
X529318Y139110D01*
X531000Y138660D01*
Y146000D01*
D02*
G37*
G36*
X395841Y105250D02*
X388500D01*
Y97909D01*
X390182Y98360D01*
X392358Y99616D01*
X394134Y101392D01*
X395390Y103568D01*
X395841Y105250D01*
D02*
G37*
G36*
X384500D02*
X377160D01*
X377610Y103568D01*
X378866Y101392D01*
X380642Y99616D01*
X382818Y98360D01*
X384500Y97909D01*
Y105250D01*
D02*
G37*
G36*
X322000Y104591D02*
Y97250D01*
X329341D01*
X328890Y98932D01*
X327634Y101108D01*
X325858Y102884D01*
X323682Y104140D01*
X322000Y104591D01*
D02*
G37*
G36*
X584500Y77340D02*
Y70000D01*
X591841D01*
X591390Y71682D01*
X590134Y73858D01*
X588358Y75634D01*
X586183Y76890D01*
X584500Y77340D01*
D02*
G37*
G36*
X580500D02*
X578818Y76890D01*
X576642Y75634D01*
X574866Y73858D01*
X573610Y71682D01*
X573160Y70000D01*
X580500D01*
Y77340D01*
D02*
G37*
G36*
X591841Y66000D02*
X584500D01*
Y58659D01*
X586183Y59110D01*
X588358Y60366D01*
X590134Y62142D01*
X591390Y64318D01*
X591841Y66000D01*
D02*
G37*
G36*
X580500D02*
X573160D01*
X573610Y64318D01*
X574866Y62142D01*
X576642Y60366D01*
X578818Y59110D01*
X580500Y58659D01*
Y66000D01*
D02*
G37*
G36*
X521250Y64341D02*
Y57000D01*
X528591D01*
X528140Y58682D01*
X526884Y60858D01*
X525108Y62634D01*
X522933Y63890D01*
X521250Y64341D01*
D02*
G37*
G36*
X517250D02*
X515568Y63890D01*
X513392Y62634D01*
X511616Y60858D01*
X510360Y58682D01*
X509910Y57000D01*
X517250D01*
Y64341D01*
D02*
G37*
G36*
X100750Y54591D02*
Y47250D01*
X108091D01*
X107640Y48932D01*
X106384Y51108D01*
X104608Y52884D01*
X102432Y54140D01*
X100750Y54591D01*
D02*
G37*
G36*
X96750D02*
X95068Y54140D01*
X92892Y52884D01*
X91116Y51108D01*
X89860Y48932D01*
X89410Y47250D01*
X96750D01*
Y54591D01*
D02*
G37*
G36*
X528591Y53000D02*
X521250D01*
Y45659D01*
X522933Y46110D01*
X525108Y47366D01*
X526884Y49142D01*
X528140Y51318D01*
X528591Y53000D01*
D02*
G37*
G36*
X517250D02*
X509910D01*
X510360Y51318D01*
X511616Y49142D01*
X513392Y47366D01*
X515568Y46110D01*
X517250Y45659D01*
Y53000D01*
D02*
G37*
G36*
X108091Y43250D02*
X100750D01*
Y35910D01*
X102432Y36360D01*
X104608Y37616D01*
X106384Y39392D01*
X107640Y41568D01*
X108091Y43250D01*
D02*
G37*
G36*
X96750D02*
X89410D01*
X89860Y41568D01*
X91116Y39392D01*
X92892Y37616D01*
X95068Y36360D01*
X96750Y35910D01*
Y43250D01*
D02*
G37*
G36*
X586819Y51500D02*
X582682D01*
X578625Y50693D01*
X574803Y49110D01*
X571363Y46812D01*
X568438Y43887D01*
X566140Y40447D01*
X564557Y36625D01*
X563750Y32568D01*
Y28431D01*
X564557Y24374D01*
X566140Y20553D01*
X568438Y17113D01*
X571363Y14188D01*
X574803Y11890D01*
X578625Y10307D01*
X582682Y9500D01*
X586819D01*
X590876Y10307D01*
X594697Y11890D01*
X598137Y14188D01*
X601062Y17113D01*
X603360Y20553D01*
X604943Y24374D01*
X605750Y28431D01*
Y32568D01*
X604943Y36625D01*
X603360Y40447D01*
X601062Y43887D01*
X598137Y46812D01*
X594697Y49110D01*
X590876Y50693D01*
X586819Y51500D01*
D02*
G37*
G36*
X36568D02*
X32431D01*
X28374Y50693D01*
X24553Y49110D01*
X21113Y46812D01*
X18188Y43887D01*
X15890Y40447D01*
X14307Y36625D01*
X13500Y32568D01*
Y28431D01*
X14307Y24374D01*
X15890Y20553D01*
X18188Y17113D01*
X21113Y14188D01*
X24553Y11890D01*
X28374Y10307D01*
X32431Y9500D01*
X36568D01*
X40625Y10307D01*
X44447Y11890D01*
X47887Y14188D01*
X50812Y17113D01*
X53110Y20553D01*
X54693Y24374D01*
X55500Y28431D01*
Y32568D01*
X54693Y36625D01*
X53110Y40447D01*
X50812Y43887D01*
X47887Y46812D01*
X44447Y49110D01*
X40625Y50693D01*
X36568Y51500D01*
D02*
G37*
%LPD*%
G36*
X489395Y463703D02*
X489516Y462258D01*
X488277Y457750D01*
X487643Y457384D01*
X487347Y457089D01*
X483095Y456598D01*
X481080Y457318D01*
X480065Y458334D01*
X477775Y459656D01*
X475900Y460158D01*
Y450300D01*
Y440442D01*
X477775Y440944D01*
X480065Y442266D01*
X480678Y442879D01*
X484136Y443554D01*
X486945Y442814D01*
X487643Y442116D01*
X489818Y440860D01*
X491500Y440410D01*
Y449750D01*
X495500D01*
Y440410D01*
X497182Y440860D01*
X499358Y442116D01*
X499632Y442391D01*
X504632Y440320D01*
Y399176D01*
X504581Y399142D01*
X499632Y397659D01*
X499411Y397990D01*
X474326Y423076D01*
X472341Y424402D01*
X470000Y424868D01*
X469068D01*
X467891Y425912D01*
X465682Y429868D01*
X466000Y431052D01*
Y433948D01*
X465250Y436746D01*
X463802Y439254D01*
X467427Y442574D01*
X467735Y442266D01*
X470025Y440944D01*
X471900Y440442D01*
Y450300D01*
Y460158D01*
X470025Y459656D01*
X467735Y458334D01*
X465866Y456465D01*
X464544Y454175D01*
X464544Y454174D01*
X459368D01*
X459216Y454739D01*
X459182Y454799D01*
X458058Y459923D01*
X460106Y461971D01*
X461554Y464480D01*
X462304Y467277D01*
Y470174D01*
X461980Y471382D01*
X464164Y475312D01*
X465358Y476382D01*
X476716D01*
X489395Y463703D01*
D02*
G37*
G36*
X58250Y434409D02*
X59932Y434860D01*
X61883Y435986D01*
X62902Y435734D01*
X66883Y433820D01*
Y432115D01*
X67348Y429774D01*
X68674Y427790D01*
X84040Y412424D01*
X86024Y411098D01*
X88365Y410633D01*
X112407D01*
X115764Y405632D01*
X115750Y405580D01*
Y402684D01*
X115889Y402165D01*
X104228Y390505D01*
X98358Y391234D01*
X97079Y393000D01*
X77659D01*
X77964Y391864D01*
X76902Y390092D01*
X74850Y388010D01*
Y376750D01*
Y365979D01*
X77066Y366572D01*
X79556Y368010D01*
X81590Y370044D01*
X81924Y370622D01*
X83210Y370985D01*
X87446Y370700D01*
X88342Y369147D01*
X90647Y366842D01*
X93471Y365212D01*
X96620Y364368D01*
X99880D01*
X103029Y365212D01*
X105853Y366842D01*
X108158Y369147D01*
X113742D01*
X116047Y366842D01*
X118871Y365212D01*
X122020Y364368D01*
X125280D01*
X126937Y364812D01*
X138575Y353174D01*
X140559Y351848D01*
X142900Y351382D01*
X172150D01*
X173658Y348636D01*
X174019Y346382D01*
X164614Y336978D01*
X163572Y335620D01*
X162917Y334039D01*
X162694Y332342D01*
Y308934D01*
X162723Y308712D01*
X157895Y307074D01*
X157790Y307256D01*
X155757Y309290D01*
X153266Y310728D01*
X151050Y311322D01*
Y300550D01*
X147050D01*
Y311322D01*
X144834Y310728D01*
X142344Y309290D01*
X140310Y307256D01*
X139976Y306678D01*
X138690Y306315D01*
X134455Y306600D01*
X133558Y308153D01*
X131253Y310458D01*
X128429Y312088D01*
X125280Y312932D01*
X122020D01*
X120364Y312488D01*
X101276Y331576D01*
X99291Y332902D01*
X96950Y333368D01*
X65534D01*
X43618Y355284D01*
Y436550D01*
X48611Y437891D01*
X48618D01*
X50392Y436116D01*
X52568Y434860D01*
X54250Y434409D01*
Y443750D01*
X58250D01*
Y434409D01*
D02*
G37*
G36*
X240828Y401420D02*
X243567Y398250D01*
X253750D01*
Y394250D01*
X244409D01*
X244860Y392568D01*
X246083Y390450D01*
Y386725D01*
X243944Y385490D01*
X241910Y383456D01*
X241576Y382878D01*
X240290Y382515D01*
X236055Y382800D01*
X235158Y384353D01*
X232853Y386658D01*
X231368Y387516D01*
Y395466D01*
X237188Y401287D01*
X239662Y401701D01*
X240828Y401420D01*
D02*
G37*
G36*
X205526Y406178D02*
X200924Y401576D01*
X199598Y399591D01*
X199132Y397250D01*
Y389132D01*
X198220D01*
X195071Y388288D01*
X192248Y386658D01*
X189942Y384353D01*
X189046Y382800D01*
X184811Y382515D01*
X183524Y382878D01*
X183190Y383456D01*
X181157Y385490D01*
X178666Y386928D01*
X175888Y387672D01*
X174405D01*
X171811Y390965D01*
X171293Y392388D01*
X171591Y393500D01*
X152909D01*
X153285Y392099D01*
X152182Y390116D01*
X151710Y389435D01*
X151050Y388763D01*
Y376750D01*
X147050D01*
Y387522D01*
X144834Y386928D01*
X142344Y385490D01*
X140310Y383456D01*
X139976Y382878D01*
X138690Y382515D01*
X134455Y382800D01*
X133558Y384353D01*
X131253Y386658D01*
X128429Y388288D01*
X128279Y391432D01*
X128934Y393329D01*
X130996Y393882D01*
X133504Y395330D01*
X135552Y397378D01*
X137000Y399886D01*
X137750Y402684D01*
Y405580D01*
X137634Y406015D01*
X140508Y410553D01*
X141252Y411015D01*
X203292D01*
X205526Y406178D01*
D02*
G37*
G36*
X272424Y388424D02*
X274409Y387098D01*
X276750Y386632D01*
X293657D01*
X295998Y387098D01*
X300769Y385104D01*
X302334Y382039D01*
X301550Y379114D01*
Y376086D01*
X302334Y373161D01*
X303848Y370539D01*
X301504Y366434D01*
X301123Y366192D01*
X298809Y366812D01*
X295912D01*
X293115Y366063D01*
X290606Y364615D01*
X289609Y363618D01*
X259748D01*
X258396Y366101D01*
X257964Y368618D01*
X259390Y370044D01*
X260828Y372534D01*
X261422Y374750D01*
X250650D01*
Y378750D01*
X261422D01*
X260828Y380966D01*
X259445Y383360D01*
X259397Y383613D01*
X259608Y388616D01*
X261384Y390392D01*
X262116Y391661D01*
X265395Y392759D01*
X267914Y392934D01*
X272424Y388424D01*
D02*
G37*
G36*
X495302Y358750D02*
X498198D01*
X499632Y359134D01*
X499928Y358988D01*
X502606Y354913D01*
X501948Y354254D01*
X500499Y351746D01*
X499750Y348948D01*
Y346052D01*
X500499Y343254D01*
X501948Y340746D01*
X503996Y338698D01*
X506504Y337250D01*
X509302Y336500D01*
X512198D01*
X513938Y336966D01*
X517117Y335368D01*
X518938Y333752D01*
Y316157D01*
X475951Y273170D01*
X474625Y271185D01*
X474159Y268844D01*
Y257653D01*
X472350Y256305D01*
X469159Y255181D01*
X467932Y255890D01*
X466250Y256341D01*
Y247000D01*
X464250D01*
Y245000D01*
X454909D01*
X455360Y243318D01*
X455399Y243250D01*
X454259Y240164D01*
X453065Y238218D01*
X452888Y238072D01*
X450754Y237500D01*
X448246Y236052D01*
X446198Y234004D01*
X445830Y233367D01*
X437284D01*
X420768Y249884D01*
Y291653D01*
X421711Y292198D01*
X423852Y294339D01*
X424570Y295581D01*
X425964Y295985D01*
X428736D01*
X430130Y295581D01*
X430848Y294339D01*
X432989Y292198D01*
X435611Y290684D01*
X438536Y289900D01*
X441564D01*
X444489Y290684D01*
X447111Y292198D01*
X449252Y294339D01*
X450766Y296961D01*
X450918Y297526D01*
X456094D01*
X456094Y297525D01*
X457416Y295235D01*
X459285Y293366D01*
X461575Y292044D01*
X463450Y291542D01*
Y301400D01*
X465450D01*
Y303400D01*
X475308D01*
X474806Y305275D01*
X473484Y307565D01*
X471615Y309434D01*
X469325Y310756D01*
X466772Y311440D01*
X465812D01*
X463495Y316112D01*
X463485Y316184D01*
X486326Y339024D01*
X487652Y341009D01*
X488118Y343350D01*
Y356259D01*
X491388Y358675D01*
X493118Y359335D01*
X495302Y358750D01*
D02*
G37*
G36*
X379330Y295581D02*
X380048Y294339D01*
X382189Y292198D01*
X384811Y290684D01*
X387736Y289900D01*
X390764D01*
X393689Y290684D01*
X396311Y292198D01*
X398452Y294339D01*
X398997Y295282D01*
X404903D01*
X405448Y294339D01*
X407589Y292198D01*
X408532Y291653D01*
Y247350D01*
X408998Y245009D01*
X410324Y243025D01*
X430424Y222924D01*
X432409Y221598D01*
X434750Y221132D01*
X445830D01*
X446198Y220496D01*
X448246Y218448D01*
X450754Y216999D01*
X453552Y216250D01*
X456448D01*
X459246Y216999D01*
X460420Y217678D01*
X463490Y213677D01*
X454081Y204268D01*
X370534D01*
X361202Y213600D01*
X362679Y217793D01*
X363208Y218665D01*
X365889Y219384D01*
X368511Y220898D01*
X370652Y223039D01*
X372166Y225661D01*
X372950Y228586D01*
Y231614D01*
X372166Y234539D01*
X371481Y235726D01*
X371396Y235980D01*
X372108Y241616D01*
X373884Y243393D01*
X375140Y245568D01*
X375591Y247250D01*
X355176D01*
X352129Y245772D01*
X312621Y285281D01*
X314534Y289900D01*
X324550D01*
Y292476D01*
X328193Y293921D01*
X329550Y294037D01*
X331389Y292198D01*
X334011Y290684D01*
X336936Y289900D01*
X339964D01*
X342889Y290684D01*
X345511Y292198D01*
X347652Y294339D01*
X348370Y295581D01*
X349764Y295985D01*
X352536D01*
X353930Y295581D01*
X354648Y294339D01*
X356789Y292198D01*
X359411Y290684D01*
X362336Y289900D01*
X365364D01*
X368289Y290684D01*
X370911Y292198D01*
X373052Y294339D01*
X373770Y295581D01*
X375164Y295985D01*
X377935D01*
X379330Y295581D01*
D02*
G37*
G36*
X201850Y289779D02*
X204066Y290372D01*
X206556Y291810D01*
X208590Y293844D01*
X208924Y294422D01*
X210210Y294785D01*
X214446Y294500D01*
X215342Y292947D01*
X217647Y290642D01*
X219133Y289785D01*
Y281456D01*
X219598Y279115D01*
X220924Y277130D01*
X234674Y263380D01*
X236659Y262054D01*
X238056Y261776D01*
X238333Y261367D01*
X235931Y256696D01*
X235442Y256367D01*
X194671D01*
X193450Y257482D01*
X191305Y261367D01*
X191341Y261500D01*
X172659D01*
X172695Y261367D01*
X170550Y257482D01*
X169329Y256367D01*
X151084D01*
X147018Y260434D01*
Y266215D01*
X146552Y268556D01*
X150064Y272300D01*
X150754Y272698D01*
X152802Y274746D01*
X154250Y277254D01*
X154503Y278199D01*
X159026Y279891D01*
X159918Y279855D01*
X173001Y266773D01*
X172659Y265500D01*
X191341D01*
X190890Y267182D01*
X189941Y268826D01*
X189746Y269838D01*
X190925Y274863D01*
X191504Y275198D01*
X193552Y277246D01*
X195000Y279754D01*
X195750Y282552D01*
Y285165D01*
X195804Y285533D01*
X196385Y286445D01*
X197850Y287826D01*
Y300550D01*
X201850D01*
Y289779D01*
D02*
G37*
G36*
X326130Y224282D02*
X326848Y223039D01*
X328989Y220898D01*
X331611Y219384D01*
X334536Y218600D01*
X337564D01*
X338617Y218882D01*
X363675Y193824D01*
X365659Y192498D01*
X368000Y192033D01*
X456615D01*
X458956Y192498D01*
X460941Y193824D01*
X482039Y214922D01*
X483883Y216255D01*
X488194Y214084D01*
Y181215D01*
X459169Y152191D01*
X458948Y152250D01*
X456052D01*
X453254Y151500D01*
X450746Y150052D01*
X448698Y148004D01*
X447250Y145496D01*
X446500Y142698D01*
Y141605D01*
X438201Y133306D01*
X280379D01*
X278308Y138306D01*
X282684Y142682D01*
X283736Y142400D01*
X286764D01*
X289689Y143184D01*
X292311Y144698D01*
X294452Y146839D01*
X294997Y147783D01*
X300903D01*
X301448Y146839D01*
X303589Y144698D01*
X306211Y143184D01*
X309136Y142400D01*
X312164D01*
X315089Y143184D01*
X317711Y144698D01*
X319852Y146839D01*
X320570Y148082D01*
X321964Y148486D01*
X324736D01*
X326130Y148082D01*
X326848Y146839D01*
X328989Y144698D01*
X331611Y143184D01*
X334536Y142400D01*
X337564D01*
X340489Y143184D01*
X343111Y144698D01*
X345252Y146839D01*
X346766Y149461D01*
X346918Y150026D01*
X352094D01*
X352094Y150025D01*
X353416Y147735D01*
X355285Y145866D01*
X357575Y144544D01*
X359450Y144042D01*
Y153900D01*
X361450D01*
Y155900D01*
X371308D01*
X370806Y157775D01*
X369484Y160065D01*
X367615Y161934D01*
X366707Y162458D01*
X366422Y163330D01*
X366362Y166764D01*
X366728Y168003D01*
X367358Y168366D01*
X369134Y170142D01*
X370390Y172318D01*
X370840Y174000D01*
X352159D01*
X352610Y172318D01*
X353866Y170142D01*
X355642Y168366D01*
X356215Y168035D01*
X356604Y166668D01*
X356503Y163237D01*
X356250Y162491D01*
X355285Y161934D01*
X353416Y160065D01*
X352094Y157775D01*
X352094Y157774D01*
X346918D01*
X346766Y158339D01*
X345252Y160961D01*
X343111Y163102D01*
X342168Y163647D01*
Y183700D01*
X341702Y186041D01*
X340376Y188026D01*
X316768Y211634D01*
Y220353D01*
X317711Y220898D01*
X319852Y223039D01*
X320570Y224282D01*
X321964Y224686D01*
X324736D01*
X326130Y224282D01*
D02*
G37*
%LPC*%
G36*
X89000Y404341D02*
Y397000D01*
X96341D01*
X95890Y398682D01*
X94634Y400858D01*
X92858Y402634D01*
X90682Y403890D01*
X89000Y404341D01*
D02*
G37*
G36*
X85000D02*
X83318Y403890D01*
X81142Y402634D01*
X79366Y400858D01*
X78110Y398682D01*
X77659Y397000D01*
X85000D01*
Y404341D01*
D02*
G37*
G36*
X70850Y387522D02*
X68635Y386928D01*
X66144Y385490D01*
X64110Y383456D01*
X62673Y380966D01*
X62079Y378750D01*
X70850D01*
Y387522D01*
D02*
G37*
G36*
Y374750D02*
X62079D01*
X62673Y372534D01*
X64110Y370044D01*
X66144Y368010D01*
X68635Y366572D01*
X70850Y365979D01*
Y374750D01*
D02*
G37*
G36*
X164250Y404841D02*
Y397500D01*
X171591D01*
X171140Y399182D01*
X169884Y401358D01*
X168108Y403134D01*
X165932Y404390D01*
X164250Y404841D01*
D02*
G37*
G36*
X160250D02*
X158568Y404390D01*
X156392Y403134D01*
X154616Y401358D01*
X153360Y399182D01*
X152909Y397500D01*
X160250D01*
Y404841D01*
D02*
G37*
G36*
X475308Y299400D02*
X467450D01*
Y291542D01*
X469325Y292044D01*
X471615Y293366D01*
X473484Y295235D01*
X474806Y297525D01*
X475308Y299400D01*
D02*
G37*
G36*
X462250Y256341D02*
X460568Y255890D01*
X458392Y254634D01*
X456616Y252858D01*
X455360Y250682D01*
X454909Y249000D01*
X462250D01*
Y256341D01*
D02*
G37*
G36*
X368250Y258591D02*
Y251250D01*
X375591D01*
X375140Y252932D01*
X373884Y255108D01*
X372108Y256884D01*
X369933Y258140D01*
X368250Y258591D01*
D02*
G37*
G36*
X364250D02*
X362568Y258140D01*
X360392Y256884D01*
X358616Y255108D01*
X357360Y252932D01*
X356910Y251250D01*
X364250D01*
Y258591D01*
D02*
G37*
G36*
X363500Y185341D02*
Y178000D01*
X370840D01*
X370390Y179683D01*
X369134Y181858D01*
X367358Y183634D01*
X365182Y184890D01*
X363500Y185341D01*
D02*
G37*
G36*
X359500D02*
X357818Y184890D01*
X355642Y183634D01*
X353866Y181858D01*
X352610Y179683D01*
X352159Y178000D01*
X359500D01*
Y185341D01*
D02*
G37*
G36*
X413750Y157341D02*
Y150000D01*
X421091D01*
X420640Y151682D01*
X419384Y153858D01*
X417608Y155634D01*
X415432Y156890D01*
X413750Y157341D01*
D02*
G37*
G36*
X409750D02*
X408068Y156890D01*
X405892Y155634D01*
X404116Y153858D01*
X402860Y151682D01*
X402409Y150000D01*
X409750D01*
Y157341D01*
D02*
G37*
G36*
X371308Y151900D02*
X363450D01*
Y144042D01*
X365325Y144544D01*
X367615Y145866D01*
X369484Y147735D01*
X370806Y150025D01*
X371308Y151900D01*
D02*
G37*
G36*
X421091Y146000D02*
X413750D01*
Y138659D01*
X415432Y139110D01*
X417608Y140366D01*
X419384Y142142D01*
X420640Y144318D01*
X421091Y146000D01*
D02*
G37*
G36*
X409750D02*
X402409D01*
X402860Y144318D01*
X404116Y142142D01*
X405892Y140366D01*
X408068Y139110D01*
X409750Y138659D01*
Y146000D01*
D02*
G37*
%LPD*%
D36*
X320000Y95250D02*
D03*
X220000D02*
D03*
X245000D02*
D03*
X370250Y623750D02*
D03*
X270000Y95250D02*
D03*
X295000D02*
D03*
X420250Y623750D02*
D03*
X395250D02*
D03*
X445250D02*
D03*
X470250D02*
D03*
X74250Y482750D02*
D03*
X98750Y45250D02*
D03*
X78500Y182750D02*
D03*
X361500Y176000D02*
D03*
X366250Y249250D02*
D03*
X139000Y582750D02*
D03*
X520500Y290683D02*
D03*
X612250Y471500D02*
D03*
X616750Y621000D02*
D03*
X127750Y165250D02*
D03*
X386500Y107250D02*
D03*
X593250Y171250D02*
D03*
X582500Y68000D02*
D03*
X519250Y55000D02*
D03*
X533000Y148000D02*
D03*
X493500Y449750D02*
D03*
X613500Y290750D02*
D03*
X557750Y398500D02*
D03*
X411750Y148000D02*
D03*
X162250Y395500D02*
D03*
X56250Y443750D02*
D03*
X87000Y395000D02*
D03*
X253750Y396250D02*
D03*
X464250Y247000D02*
D03*
X70500Y275000D02*
D03*
X182000Y263500D02*
D03*
X383250Y510500D02*
D03*
X349250Y501250D02*
D03*
X414875Y431750D02*
D03*
X246750Y113250D02*
D03*
X496750Y369750D02*
D03*
X121750Y250500D02*
D03*
X365500Y431750D02*
D03*
X264000Y252250D02*
D03*
X413250Y509750D02*
D03*
X126750Y404132D02*
D03*
X252000Y267250D02*
D03*
X599750Y537250D02*
D03*
X549750Y342750D02*
D03*
X62750Y545250D02*
D03*
X156500Y30250D02*
D03*
X174500Y134750D02*
D03*
X142500Y683250D02*
D03*
X457500Y141250D02*
D03*
X494750Y224500D02*
D03*
X587250Y269000D02*
D03*
X594750Y402500D02*
D03*
X144000Y281500D02*
D03*
X184750Y284000D02*
D03*
X173250Y237250D02*
D03*
X510750Y347500D02*
D03*
X455000Y432500D02*
D03*
X451304Y468726D02*
D03*
X417250Y469250D02*
D03*
X222500Y414500D02*
D03*
X297360Y355812D02*
D03*
X194000Y430132D02*
D03*
X93257Y432339D02*
D03*
X167500Y433750D02*
D03*
X259750Y284250D02*
D03*
X295817Y419884D02*
D03*
X284361Y406000D02*
D03*
X301250Y398000D02*
D03*
X376500Y393000D02*
D03*
X518750Y657500D02*
D03*
Y636750D02*
D03*
X140750Y614250D02*
D03*
X322500Y322500D02*
D03*
X341250Y323500D02*
D03*
X217000Y328750D02*
D03*
X363750Y356250D02*
D03*
X361500Y322250D02*
D03*
X455000Y227250D02*
D03*
X138500Y552000D02*
D03*
X184750Y328750D02*
D03*
X286750Y250750D02*
D03*
X506500Y520750D02*
D03*
X474250Y67250D02*
D03*
X196250Y113250D02*
D03*
X188750Y166000D02*
D03*
X270125Y113250D02*
D03*
X269250Y68500D02*
D03*
D40*
X195000Y95250D02*
D03*
X495250Y623750D02*
D03*
D56*
X252200Y394700D02*
X253750Y396250D01*
X252200Y378450D02*
Y394700D01*
X251250Y377500D02*
X252200Y378450D01*
X149050Y376750D02*
X174450D01*
X164163Y387037D02*
X174450Y376750D01*
X164163Y387037D02*
Y393087D01*
X163500Y393750D02*
X164163Y393087D01*
X181000Y266250D02*
Y267425D01*
X149050Y299375D02*
Y300550D01*
Y299375D02*
X181000Y267425D01*
X372300Y526500D02*
X389550Y543750D01*
X431250D01*
X448000Y527000D01*
X372300Y526500D02*
X381337Y517463D01*
Y512413D02*
Y517463D01*
Y512413D02*
X383250Y510500D01*
X349250Y500000D02*
X397700Y451550D01*
X349250Y500000D02*
Y501250D01*
X397700Y449613D02*
X414875Y432438D01*
Y431750D02*
Y432438D01*
X397700Y449613D02*
Y451550D01*
X245000Y95250D02*
X245875Y96125D01*
X495085Y371415D02*
X496750Y369750D01*
X495085Y371415D02*
Y393665D01*
X245875Y112375D02*
X246750Y113250D01*
X245875Y96125D02*
Y112375D01*
X470000Y418750D02*
X495085Y393665D01*
X346900Y429100D02*
X357250Y418750D01*
X346900Y429100D02*
Y450300D01*
X357250Y418750D02*
X470000D01*
X259850Y230100D02*
Y232219D01*
X261133Y235146D02*
X261955Y234324D01*
X261133Y235146D02*
Y246677D01*
X259850Y232219D02*
X261955Y234324D01*
X121750Y250500D02*
X123000Y251750D01*
X134750D01*
X140500Y257500D01*
X98250Y300550D02*
X117050Y281750D01*
X370195Y439151D02*
Y448195D01*
X372300Y450300D01*
X365500Y431750D02*
Y434456D01*
X370195Y439151D01*
X261133Y246677D02*
X264000Y249544D01*
Y252250D01*
X140900Y257900D02*
Y266215D01*
X117050Y281750D02*
X125365D01*
X140900Y266215D01*
X148550Y250250D02*
X239700D01*
X258791Y231160D01*
X140900Y257900D02*
X148550Y250250D01*
X413250Y509750D02*
X421300Y517800D01*
Y525300D01*
X422250Y526250D01*
X98250Y376750D02*
X99125D01*
X126507Y404132D01*
X126750D01*
X440050Y301400D02*
X482000Y343350D01*
Y380849D01*
X321500Y434500D02*
Y450300D01*
X456849Y406000D02*
X482000Y380849D01*
X321500Y434500D02*
X350000Y406000D01*
X456849D01*
X368000Y198150D02*
X456615D01*
X480277Y221812D01*
X484750Y496000D02*
X525056Y455694D01*
X397700Y506050D02*
Y526500D01*
X407750Y496000D02*
X484750D01*
X397700Y506050D02*
X407750Y496000D01*
X480277Y268844D02*
X525056Y313623D01*
Y455694D01*
X480277Y221812D02*
Y268844D01*
X225250Y281456D02*
Y300550D01*
X295900Y270250D02*
X336050Y230100D01*
X368000Y198150D01*
X225250Y281456D02*
X239000Y267706D01*
X252000Y267250D02*
X273803D01*
X276803Y270250D01*
X239000Y267706D02*
X251544D01*
X252000Y267250D01*
X276803Y270250D02*
X295900D01*
X539750Y353044D02*
Y462750D01*
X473900Y526500D02*
X476000D01*
X539750Y462750D01*
X597396Y537250D02*
X599750D01*
X482900Y535500D02*
X595646D01*
X597396Y537250D01*
X474950Y527550D02*
X482900Y535500D01*
X473900Y526500D02*
X474950Y527550D01*
X539750Y353044D02*
X549750Y343044D01*
Y342750D02*
Y343044D01*
X142500Y683250D02*
X167250D01*
X179250Y695250D01*
X182837Y285913D02*
X184750Y284000D01*
X182837Y285913D02*
Y288710D01*
X175000Y296546D02*
X182837Y288710D01*
X175000Y296546D02*
Y300500D01*
X510750Y347500D02*
Y451000D01*
X346900Y526500D02*
X347314D01*
X391314Y482500D02*
X479250D01*
X347314Y526500D02*
X391314Y482500D01*
X479250D02*
X510750Y451000D01*
X455000Y432500D02*
Y435206D01*
X450605Y439601D02*
X455000Y435206D01*
X450605Y439601D02*
Y449645D01*
X449750Y450500D02*
X450605Y449645D01*
X448500Y450300D02*
X449902Y451702D01*
Y467323D01*
X451304Y468726D01*
X417250Y457724D02*
X422500Y452475D01*
X417250Y457724D02*
Y469250D01*
X422500Y450000D02*
Y452475D01*
Y450300D02*
Y452475D01*
Y450000D02*
Y452475D01*
Y450000D02*
Y452475D01*
X199850Y380075D02*
X205250Y385475D01*
X199850Y376750D02*
Y380075D01*
X205250Y385475D02*
Y397250D01*
X222500Y414500D01*
X142900Y357500D02*
X295673D01*
X297360Y355812D01*
X237000Y409750D02*
X259750D01*
X276750Y392750D01*
X225250Y398000D02*
X237000Y409750D01*
X194000Y430132D02*
X195913Y432046D01*
Y438513D01*
X205550Y448150D01*
X121365Y417132D02*
X205132D01*
X221000Y433000D01*
X120983Y416750D02*
X121365Y417132D01*
X88365Y416750D02*
X120983D01*
X73000Y432115D02*
X88365Y416750D01*
X93257Y434898D02*
X103950Y445591D01*
X93257Y432339D02*
Y434898D01*
X103950Y448150D02*
X106055Y446045D01*
X103950Y445591D02*
Y448150D01*
X73000Y440307D02*
X73050Y440357D01*
X73000Y432115D02*
Y440307D01*
X73050Y440357D02*
Y442650D01*
X78550Y448150D01*
X221000Y433000D02*
X257361D01*
X167500Y433750D02*
Y434625D01*
X180150Y447275D02*
Y448150D01*
X167500Y434625D02*
X180150Y447275D01*
X250650Y297096D02*
Y300550D01*
X257836Y286164D02*
X259750Y284250D01*
X250650Y297096D02*
X257836Y289910D01*
Y286164D02*
Y289910D01*
X293111Y419884D02*
X295817D01*
X289769Y423226D02*
X293111Y419884D01*
X288774Y423226D02*
X289769D01*
X265750Y446250D02*
Y517500D01*
Y446250D02*
X288774Y423226D01*
X276750Y392750D02*
X293657D01*
X225250Y376750D02*
Y398000D01*
X257361Y433000D02*
X284361Y406000D01*
X293657Y392750D02*
X298907Y398000D01*
X301250D01*
X413250Y300000D02*
X414650Y298600D01*
X412250Y301000D02*
X414650Y298600D01*
X294500Y93000D02*
X297250D01*
X294500D02*
X297250D01*
X294500D02*
X297250D01*
X413250Y300000D02*
X414650Y298600D01*
X413250Y300000D02*
X414650Y298600D01*
X412250Y301000D02*
X413250Y300000D01*
X412250Y301000D02*
X413250Y300000D01*
X217000Y328750D02*
X309750D01*
X319000Y338000D01*
X123650Y376750D02*
X142900Y357500D01*
X269250Y70125D02*
X294375Y95250D01*
X376500Y391675D02*
Y393000D01*
Y391675D02*
X389250Y378925D01*
Y377600D02*
Y378925D01*
X140750Y614000D02*
Y614250D01*
Y614000D02*
X179250Y575500D01*
Y575250D02*
Y575500D01*
X322250Y319544D02*
Y322000D01*
X318550Y315844D02*
X322250Y319544D01*
X318550Y306900D02*
Y315844D01*
X313050Y301400D02*
X318550Y306900D01*
X128250Y450250D02*
Y451000D01*
X96950Y327250D02*
X123650Y300550D01*
X63000Y327250D02*
X96950D01*
X37500Y352750D02*
X63000Y327250D01*
X37500Y352750D02*
Y447907D01*
X113250Y466000D02*
X128250Y451000D01*
X37500Y447907D02*
X55593Y466000D01*
X113250D01*
X339106Y316400D02*
X339336Y316631D01*
Y321586D02*
X341250Y323500D01*
X339336Y316631D02*
Y321586D01*
X339106Y302056D02*
Y316400D01*
X338450Y301400D02*
X339106Y302056D01*
X197223Y315750D02*
X273500D01*
X389250Y301400D02*
X412650D01*
X184750Y328223D02*
X197223Y315750D01*
X273500D02*
X359150Y230100D01*
X184750Y328223D02*
Y328750D01*
X150779Y441203D02*
X155576Y446000D01*
X150779Y441029D02*
Y441203D01*
X117500Y428250D02*
X138000D01*
X150779Y441029D01*
X106055Y439695D02*
X117500Y428250D01*
X106055Y439695D02*
Y446045D01*
X363750Y356250D02*
X363800Y356300D01*
Y377550D01*
X363850Y377600D01*
X338450D02*
X363650D01*
X361750Y321250D02*
X362675Y320325D01*
Y302575D02*
Y320325D01*
Y302575D02*
X363850Y301400D01*
X319000Y338000D02*
X364250D01*
X389250Y313000D01*
Y301400D02*
Y313000D01*
X412650Y301400D02*
X413000Y301750D01*
X414650Y247350D02*
Y298600D01*
X434750Y227250D02*
X455000D01*
X414650Y247350D02*
X434750Y227250D01*
X138500Y552000D02*
X145250Y545250D01*
X238000D02*
X265750Y517500D01*
X145250Y545250D02*
X238000D01*
X359150Y230100D02*
X361450D01*
X285250D02*
X286000Y230850D01*
Y250000D01*
X286750Y250750D01*
X310650Y153900D02*
X310750Y154000D01*
X285250Y153900D02*
X310650D01*
X197893Y156857D02*
X206094D01*
X209050Y153900D02*
X234400D01*
X206094Y156857D02*
X209050Y153900D01*
X234450D02*
X248351Y140000D01*
X271350D02*
X285250Y153900D01*
X248351Y140000D02*
X271350D01*
X196250Y96500D02*
Y113250D01*
X195000Y95250D02*
X196250Y96500D01*
X188750Y166000D02*
X197893Y156857D01*
X234000Y228750D02*
X234750Y228000D01*
Y197250D02*
Y228000D01*
Y197250D02*
X259850Y172150D01*
Y153900D02*
Y172150D01*
X310650Y227150D02*
X311250Y227750D01*
X310650Y209100D02*
Y227150D01*
Y209100D02*
X336050Y183700D01*
Y153900D02*
Y183700D01*
X270062Y113188D02*
X270125Y113250D01*
X270062Y95312D02*
Y113188D01*
X270000Y95250D02*
X270062Y95312D01*
X297250Y93000D02*
X329500Y60750D01*
X474057Y67250D02*
X474250D01*
X329500Y60750D02*
X467557D01*
X294375Y95250D02*
X295000D01*
X269250Y68500D02*
Y70125D01*
X467557Y60750D02*
X474057Y67250D01*
X506500Y520750D02*
X508165Y519086D01*
X515265D01*
X539600Y494750D01*
D57*
X62750Y542815D02*
Y545250D01*
Y542815D02*
X77976Y527589D01*
Y523775D02*
Y527589D01*
X156500Y30250D02*
X176000Y49750D01*
X175973Y127998D02*
Y133277D01*
X176000Y49750D02*
Y127971D01*
X175973Y127998D02*
X176000Y127971D01*
X174500Y134750D02*
X175973Y133277D01*
X169250Y308934D02*
Y332342D01*
Y308934D02*
X174450Y303733D01*
X457500Y141250D02*
X494750Y178500D01*
Y224500D01*
X495250Y224000D01*
X542250D01*
X585500Y267250D01*
X314750Y379400D02*
Y429229D01*
X314964Y352127D02*
Y375686D01*
X266750Y560343D02*
X300593Y526500D01*
X266750Y560343D02*
Y598750D01*
X291750Y623750D02*
X370250D01*
X266750Y598750D02*
X291750Y623750D01*
X307500Y436479D02*
Y512500D01*
Y436479D02*
X314750Y429229D01*
X307500Y512500D02*
X320500Y525500D01*
X455416Y141250D02*
X456750D01*
X175973Y133277D02*
X178057D01*
X440917Y126750D02*
X455416Y141250D01*
X178057Y133277D02*
X184584Y126750D01*
X440917D01*
X320500Y526500D02*
X321500D01*
X300593D02*
X320500D01*
X585500Y267250D02*
X587250D01*
X313000Y377650D02*
X314750Y379400D01*
X313000Y377650D02*
X314964Y375686D01*
X587250Y269000D02*
X600000Y281750D01*
X594750Y343532D02*
X600000Y338282D01*
X594750Y343532D02*
Y402500D01*
X600000Y281750D02*
Y338282D01*
X305149Y342313D02*
X314964Y352127D01*
X179221Y342313D02*
X305149D01*
X169250Y332342D02*
X179221Y342313D01*
X174450Y300550D02*
Y303733D01*
X175685Y237250D02*
X182835Y230100D01*
X209050D01*
X173250Y237250D02*
X175685D01*
D58*
X518500Y657250D02*
X518750Y657500D01*
X489500Y657250D02*
X518500D01*
X517985Y635984D02*
X518750Y636750D01*
X503342Y635984D02*
X517985D01*
X497250Y629892D02*
X503342Y635984D01*
X495250Y623750D02*
X497250Y625750D01*
Y629892D01*
X470250Y623750D02*
Y638000D01*
X489500Y657250D01*
X445250Y623750D02*
Y666750D01*
X416750Y695250D02*
X445250Y666750D01*
X301250Y695250D02*
X416750D01*
X359750Y659250D02*
X394749Y624250D01*
X159250Y635250D02*
X183250Y659250D01*
X359750D01*
X419485Y622984D02*
X420250Y623750D01*
X419485Y614985D02*
Y622984D01*
X301250Y575250D02*
X379750D01*
X419485Y614985D01*
D59*
X372300Y450300D02*
D03*
X473900Y526500D02*
D03*
X423100D02*
D03*
X397700D02*
D03*
X372300D02*
D03*
X346900D02*
D03*
X448500Y450300D02*
D03*
X423100D02*
D03*
X346900D02*
D03*
X397700D02*
D03*
X448500Y526500D02*
D03*
X473900Y450300D02*
D03*
X321500Y526500D02*
D03*
X361450Y153900D02*
D03*
X465450Y301400D02*
D03*
X230950Y448150D02*
D03*
X259850Y230100D02*
D03*
X440050Y301400D02*
D03*
X336050Y230100D02*
D03*
X209050D02*
D03*
X78550Y524350D02*
D03*
X313050Y377600D02*
D03*
X414650Y301400D02*
D03*
X389250D02*
D03*
X414650Y377600D02*
D03*
X440050D02*
D03*
X389250D02*
D03*
X465450D02*
D03*
X363850D02*
D03*
X338450D02*
D03*
X363850Y301400D02*
D03*
X338450D02*
D03*
X129350Y448150D02*
D03*
X205550D02*
D03*
X154750D02*
D03*
X103950D02*
D03*
X234450Y153900D02*
D03*
X259850D02*
D03*
X285250D02*
D03*
X310650D02*
D03*
X336050D02*
D03*
X234450Y230100D02*
D03*
X310650D02*
D03*
X361450D02*
D03*
X285250D02*
D03*
X180150Y448150D02*
D03*
X103950Y524350D02*
D03*
X129350D02*
D03*
X154750D02*
D03*
X180150D02*
D03*
X205550D02*
D03*
X230950D02*
D03*
D60*
X321500Y450300D02*
D03*
X313050Y301400D02*
D03*
X209050Y153900D02*
D03*
X78550Y448150D02*
D03*
D61*
X72850Y300550D02*
D03*
D62*
Y376750D02*
D03*
X149050D02*
D03*
Y300550D02*
D03*
X199850D02*
D03*
X174450Y376750D02*
D03*
X250650D02*
D03*
X98250Y300550D02*
D03*
Y376750D02*
D03*
X225250Y300550D02*
D03*
X174450D02*
D03*
X199850Y376750D02*
D03*
X123650D02*
D03*
X225250D02*
D03*
X250650Y300550D02*
D03*
X123650D02*
D03*
D63*
X179250Y695250D02*
D03*
D64*
X565000Y494750D02*
D03*
X539600D02*
D03*
D65*
X301250Y575250D02*
D03*
X179250D02*
D03*
X301250Y695250D02*
D03*
D66*
X159250Y635250D02*
D03*
D67*
X584750Y669250D02*
D03*
Y30500D02*
D03*
X34500D02*
D03*
Y669250D02*
D03*
M02*
