G04*
G04 #@! TF.GenerationSoftware,Altium Limited,Altium Designer,25.8.1 (18)*
G04*
G04 Layer_Color=65535*
%FSLAX44Y44*%
%MOMM*%
G71*
G04*
G04 #@! TF.SameCoordinates,DC2B5BAD-EA03-42BE-BCCD-12A4486FAF28*
G04*
G04*
G04 #@! TF.FilePolarity,Positive*
G04*
G01*
G75*
%ADD10C,0.6000*%
%ADD11C,0.2500*%
%ADD12C,0.2000*%
%ADD13C,0.1524*%
%ADD14C,0.3000*%
%ADD15C,0.1750*%
%ADD16C,0.1270*%
%ADD17C,0.2540*%
%ADD18C,0.1500*%
D10*
X312200Y471900D02*
G03*
X312200Y471900I-3000J0D01*
G01*
X303750Y323000D02*
G03*
X303750Y323000I-3000J0D01*
G01*
X200750Y175500D02*
G03*
X200750Y175500I-3000J0D01*
G01*
X69250Y469750D02*
G03*
X69250Y469750I-3000J0D01*
G01*
X415250Y51000D02*
G03*
X415250Y51000I-3000J0D01*
G01*
D11*
X309750Y450300D02*
G03*
X309750Y450300I-1250J0D01*
G01*
X301300Y301400D02*
G03*
X301300Y301400I-1250J0D01*
G01*
X197300Y153900D02*
G03*
X197300Y153900I-1250J0D01*
G01*
X165750Y95250D02*
G03*
X165750Y95250I-1250J0D01*
G01*
X66800Y448150D02*
G03*
X66800Y448150I-1250J0D01*
G01*
X526450Y180000D02*
G03*
X526450Y180000I-1250J0D01*
G01*
X109750Y701750D02*
G03*
X109750Y701750I-1250J0D01*
G01*
X527000Y623750D02*
G03*
X527000Y623750I-1250J0D01*
G01*
X515000Y72000D02*
G03*
X515000Y72000I-1250J0D01*
G01*
X391250Y63800D02*
G03*
X391250Y63800I-1250J0D01*
G01*
D12*
X299200Y482050D02*
G03*
X299200Y494750I0J6350D01*
G01*
X290750Y333150D02*
G03*
X290750Y345850I0J6350D01*
G01*
X187750Y185650D02*
G03*
X187750Y198350I0J6350D01*
G01*
X56250Y479900D02*
G03*
X56250Y492600I0J6350D01*
G01*
X94250Y51050D02*
G03*
X94250Y51050I-1000J0D01*
G01*
X581525Y494750D02*
G03*
X581525Y494750I-29225J0D01*
G01*
X496200Y461900D02*
Y514900D01*
X299200Y494750D02*
Y514900D01*
Y461900D02*
Y482050D01*
Y514900D02*
X496200D01*
X299200Y461900D02*
X496200D01*
X487750Y313000D02*
Y366000D01*
X290750Y345850D02*
Y366000D01*
Y313000D02*
Y333150D01*
Y366000D02*
X487750D01*
X290750Y313000D02*
X487750D01*
X555750Y115000D02*
X560250D01*
X555750Y101500D02*
X560250D01*
X556000Y76750D02*
X560500D01*
X556000Y90250D02*
X560500D01*
X557000Y125750D02*
X561500D01*
X557000Y139250D02*
X561500D01*
X187750Y165500D02*
X382750D01*
X187750Y218500D02*
X382750D01*
X187750Y165500D02*
Y185650D01*
Y198350D02*
Y218500D01*
X382750Y165500D02*
Y218500D01*
X170499Y3250D02*
X344500D01*
X170499D02*
Y118250D01*
X344500D01*
Y3250D02*
Y118250D01*
X56250Y459750D02*
X253250D01*
X56250Y512750D02*
X253250D01*
X56250Y459750D02*
Y479900D01*
Y492600D02*
Y512750D01*
X253250Y459750D02*
Y512750D01*
X515575Y492250D02*
Y497250D01*
X513075Y494750D02*
X518075D01*
X579000Y238750D02*
Y243250D01*
X592500Y238750D02*
Y243250D01*
X493750Y198250D02*
X498250D01*
X493750Y184750D02*
X498250D01*
X481500Y148750D02*
X486000D01*
X481500Y135250D02*
X486000D01*
X519250Y264750D02*
X523750D01*
X519250Y278250D02*
X523750D01*
X519250Y204000D02*
Y235500D01*
X569250Y204000D02*
Y235500D01*
X123000Y647500D02*
Y693500D01*
X94000Y647500D02*
X94750D01*
X122250D02*
X123000D01*
X94000D02*
Y693500D01*
X94750D01*
X122250D02*
X123000D01*
X345750Y600750D02*
Y715750D01*
Y600750D02*
X519750D01*
Y715750D01*
X345750D02*
X519750D01*
X499250Y80250D02*
X500000D01*
X527500D02*
X528250D01*
Y126250D01*
X499250D02*
X500000D01*
X527500D02*
X528250D01*
X499250Y80250D02*
Y126250D01*
X402250Y11000D02*
Y61000D01*
X434250Y11000D02*
Y61000D01*
X402250D02*
X434250D01*
X402250Y11000D02*
X434250D01*
X507250Y149250D02*
Y153750D01*
X520750Y149250D02*
Y153750D01*
X106750Y608001D02*
X110250D01*
X124000Y612751D02*
Y626001D01*
X93000D02*
X100750D01*
X116250D02*
X124000D01*
X93000Y612751D02*
Y626001D01*
X547750Y614750D02*
X551250D01*
X565000Y619500D02*
Y632750D01*
X534000D02*
X541750D01*
X557250D02*
X565000D01*
X534000Y619500D02*
Y632750D01*
X579000Y199250D02*
Y203750D01*
X592500Y199250D02*
Y203750D01*
X575250Y620251D02*
Y633501D01*
X598500D02*
X606250D01*
X575250D02*
X583000D01*
X606250Y620251D02*
Y633501D01*
X589000Y615501D02*
X592500D01*
X496177Y436487D02*
Y421250D01*
X496902Y436487D02*
Y421250D01*
X494000Y436487D02*
X502707D01*
X504883Y435761D01*
X505609Y435036D01*
X506334Y433585D01*
Y431408D01*
X505609Y429957D01*
X504883Y429231D01*
X502707Y428506D01*
X496902D01*
X502707Y436487D02*
X504158Y435761D01*
X504883Y435036D01*
X505609Y433585D01*
Y431408D01*
X504883Y429957D01*
X504158Y429231D01*
X502707Y428506D01*
X494000Y421250D02*
X499079D01*
X510543Y436487D02*
X513445Y421250D01*
X511268Y436487D02*
X513445Y424878D01*
X516347Y436487D02*
X513445Y421250D01*
X516347Y436487D02*
X519249Y421250D01*
X517073Y436487D02*
X519249Y424878D01*
X522152Y436487D02*
X519249Y421250D01*
X508366Y436487D02*
X513445D01*
X519975D02*
X524328D01*
X528174D02*
Y421250D01*
X528899Y436487D02*
Y421250D01*
X525997Y436487D02*
X534704D01*
X536881Y435761D01*
X537606Y435036D01*
X538332Y433585D01*
Y432133D01*
X537606Y430682D01*
X536881Y429957D01*
X534704Y429231D01*
X528899D01*
X534704Y436487D02*
X536155Y435761D01*
X536881Y435036D01*
X537606Y433585D01*
Y432133D01*
X536881Y430682D01*
X536155Y429957D01*
X534704Y429231D01*
X525997Y421250D02*
X531076D01*
X532527Y429231D02*
X533978Y428506D01*
X534704Y427780D01*
X536881Y422701D01*
X537606Y421976D01*
X538332D01*
X539057Y422701D01*
X533978Y428506D02*
X534704Y427054D01*
X536155Y421976D01*
X536881Y421250D01*
X538332D01*
X539057Y422701D01*
Y423427D01*
X306047Y280746D02*
Y265749D01*
X306761Y280746D02*
Y265749D01*
X303904Y280746D02*
X308903D01*
X303904Y265749D02*
X314616D01*
Y270034D01*
X313902Y265749D01*
X323186Y280746D02*
X318187Y265749D01*
X323186Y280746D02*
X328185Y265749D01*
X323186Y278603D02*
X327471Y265749D01*
X319615Y270034D02*
X326043D01*
X316759Y265749D02*
X321044D01*
X325328D02*
X329613D01*
X336540Y280746D02*
Y265749D01*
X337254Y280746D02*
Y265749D01*
X332256Y280746D02*
X331541Y276461D01*
Y280746D01*
X342253D01*
Y276461D01*
X341539Y280746D01*
X334398Y265749D02*
X339397D01*
X354394Y278603D02*
X355108Y276461D01*
Y280746D01*
X354394Y278603D01*
X352965Y280032D01*
X350823Y280746D01*
X349395D01*
X347252Y280032D01*
X345824Y278603D01*
X345110Y277175D01*
X344396Y275033D01*
Y271462D01*
X345110Y269320D01*
X345824Y267891D01*
X347252Y266463D01*
X349395Y265749D01*
X350823D01*
X352965Y266463D01*
X354394Y267891D01*
X355108Y269320D01*
X349395Y280746D02*
X347966Y280032D01*
X346538Y278603D01*
X345824Y277175D01*
X345110Y275033D01*
Y271462D01*
X345824Y269320D01*
X346538Y267891D01*
X347966Y266463D01*
X349395Y265749D01*
X359393Y280746D02*
Y265749D01*
X360107Y280746D02*
Y265749D01*
X368676Y280746D02*
Y265749D01*
X369390Y280746D02*
Y265749D01*
X357250Y280746D02*
X362249D01*
X366534D02*
X371533D01*
X360107Y273604D02*
X368676D01*
X357250Y265749D02*
X362249D01*
X366534D02*
X371533D01*
X374032Y260750D02*
X386172D01*
X389529Y275747D02*
X393814Y265749D01*
X390243Y275747D02*
X393814Y267177D01*
X398098Y275747D02*
X393814Y265749D01*
X388101Y275747D02*
X392385D01*
X395242D02*
X399527D01*
X402312Y277889D02*
X403026Y277175D01*
X402312Y276461D01*
X401598Y277175D01*
Y277889D01*
X402312Y279317D01*
X403026Y280032D01*
X405168Y280746D01*
X408025D01*
X410167Y280032D01*
X410882Y278603D01*
Y276461D01*
X410167Y275033D01*
X408025Y274319D01*
X405883D01*
X408025Y280746D02*
X409453Y280032D01*
X410167Y278603D01*
Y276461D01*
X409453Y275033D01*
X408025Y274319D01*
X409453Y273604D01*
X410882Y272176D01*
X411596Y270748D01*
Y268605D01*
X410882Y267177D01*
X410167Y266463D01*
X408025Y265749D01*
X405168D01*
X403026Y266463D01*
X402312Y267177D01*
X401598Y268605D01*
Y269320D01*
X402312Y270034D01*
X403026Y269320D01*
X402312Y268605D01*
X410167Y272890D02*
X410882Y270748D01*
Y268605D01*
X410167Y267177D01*
X409453Y266463D01*
X408025Y265749D01*
X507177Y377237D02*
Y362000D01*
X507902Y377237D02*
Y362000D01*
X505000Y377237D02*
X510079D01*
X505000Y362000D02*
X510079D01*
X515013Y377237D02*
Y362000D01*
X515738Y377237D02*
X520092Y364177D01*
X515013Y377237D02*
X520092Y362000D01*
X525171Y377237D02*
X520092Y362000D01*
X525171Y377237D02*
Y362000D01*
X525896Y377237D02*
Y362000D01*
X512836Y377237D02*
X515738D01*
X525171D02*
X528073D01*
X512836Y362000D02*
X517189D01*
X522994D02*
X528073D01*
X531991Y377237D02*
Y362000D01*
X532716Y377237D02*
Y362000D01*
X529814Y377237D02*
X537070D01*
X539246Y376511D01*
X540698Y375060D01*
X541423Y373609D01*
X542149Y371432D01*
Y367804D01*
X541423Y365628D01*
X540698Y364177D01*
X539246Y362726D01*
X537070Y362000D01*
X529814D01*
X537070Y377237D02*
X538521Y376511D01*
X539972Y375060D01*
X540698Y373609D01*
X541423Y371432D01*
Y367804D01*
X540698Y365628D01*
X539972Y364177D01*
X538521Y362726D01*
X537070Y362000D01*
X504530Y321737D02*
X499451Y306500D01*
X504530Y321737D02*
X509609Y306500D01*
X504530Y319560D02*
X508883Y306500D01*
X500902Y310853D02*
X507432D01*
X498000Y306500D02*
X502353D01*
X506707D02*
X511060D01*
X515196Y321737D02*
Y306500D01*
X515921Y321737D02*
X520275Y308677D01*
X515196Y321737D02*
X520275Y306500D01*
X525354Y321737D02*
X520275Y306500D01*
X525354Y321737D02*
Y306500D01*
X526079Y321737D02*
Y306500D01*
X513019Y321737D02*
X515921D01*
X525354D02*
X528256D01*
X513019Y306500D02*
X517372D01*
X523177D02*
X528256D01*
X539429Y319560D02*
X540155Y321737D01*
Y317383D01*
X539429Y319560D01*
X537978Y321011D01*
X535802Y321737D01*
X533625D01*
X531448Y321011D01*
X529997Y319560D01*
Y318109D01*
X530723Y316658D01*
X531448Y315932D01*
X532899Y315207D01*
X537253Y313756D01*
X538704Y313030D01*
X540155Y311579D01*
X529997Y318109D02*
X531448Y316658D01*
X532899Y315932D01*
X537253Y314481D01*
X538704Y313756D01*
X539429Y313030D01*
X540155Y311579D01*
Y308677D01*
X538704Y307226D01*
X536527Y306500D01*
X534351D01*
X532174Y307226D01*
X530723Y308677D01*
X529997Y310853D01*
Y306500D01*
X530723Y308677D01*
D13*
X64214Y335602D02*
G03*
X64214Y341698I0J3048D01*
G01*
X64214Y313758D02*
Y335602D01*
Y341698D01*
Y366844D01*
X259286Y310456D02*
Y366844D01*
D14*
X139250Y696440D02*
G03*
X139250Y696440I-1000J0D01*
G01*
D15*
X571250Y439750D02*
X580250D01*
Y415750D02*
Y439750D01*
X571250Y415750D02*
X580250D01*
X571999Y303250D02*
X580999D01*
Y327250D01*
X571999D02*
X580999D01*
X570750Y383500D02*
X579750D01*
Y359500D02*
Y383500D01*
X570750Y359500D02*
X579750D01*
D16*
X144750Y557750D02*
X335750D01*
Y712750D01*
X144750D02*
X335750D01*
X144750Y557750D02*
Y712750D01*
X24500Y100500D02*
X84500D01*
X24500Y160500D02*
X84500D01*
X24500Y100500D02*
Y116300D01*
Y144700D02*
Y160500D01*
X84500Y100500D02*
Y116300D01*
Y144700D02*
Y160500D01*
D17*
X12955Y636460D02*
X26951D01*
X22285Y631795D01*
X26951Y627130D01*
X12955D01*
X22285Y620132D02*
Y615467D01*
X19953Y613134D01*
X12955D01*
Y620132D01*
X15288Y622464D01*
X17620Y620132D01*
Y613134D01*
X26951Y599139D02*
X12955D01*
Y606136D01*
X15288Y608469D01*
X19953D01*
X22285Y606136D01*
Y599139D01*
X12955Y587476D02*
Y592141D01*
X15288Y594473D01*
X19953D01*
X22285Y592141D01*
Y587476D01*
X19953Y585143D01*
X17620D01*
Y594473D01*
X26951Y566483D02*
X12955D01*
Y559485D01*
X15288Y557152D01*
X17620D01*
X19953D01*
X22285Y559485D01*
Y566483D01*
Y552487D02*
X15288D01*
X12955Y550154D01*
Y543157D01*
X10623D01*
X8290Y545489D01*
Y547822D01*
X12955Y543157D02*
X22285D01*
Y538492D02*
Y536159D01*
X19953D01*
Y538492D01*
X22285D01*
X15288D02*
Y536159D01*
X12955D01*
Y538492D01*
X15288D01*
X375447Y577525D02*
X365290D01*
Y569907D01*
X370368D01*
X365290D01*
Y562290D01*
X390682Y574986D02*
X388143Y577525D01*
X383064D01*
X380525Y574986D01*
Y572447D01*
X383064Y569907D01*
X388143D01*
X390682Y567368D01*
Y564829D01*
X388143Y562290D01*
X383064D01*
X380525Y564829D01*
X395760Y577525D02*
Y564829D01*
X398299Y562290D01*
X403378D01*
X405917Y564829D01*
Y577525D01*
X410995D02*
Y562290D01*
Y567368D01*
X421152Y577525D01*
X413534Y569907D01*
X421152Y562290D01*
X451622D02*
X441465D01*
X451622Y572447D01*
Y574986D01*
X449083Y577525D01*
X444005D01*
X441465Y574986D01*
X466857Y577525D02*
X461779Y574986D01*
X456700Y569907D01*
Y564829D01*
X459240Y562290D01*
X464318D01*
X466857Y564829D01*
Y567368D01*
X464318Y569907D01*
X456700D01*
X33431Y512960D02*
X47426D01*
X42761Y508295D01*
X47426Y503630D01*
X33431D01*
Y496632D02*
Y491967D01*
X35763Y489634D01*
X40428D01*
X42761Y491967D01*
Y496632D01*
X40428Y498965D01*
X35763D01*
X33431Y496632D01*
X47426Y484969D02*
X33431D01*
X40428D01*
X42761Y482636D01*
Y477971D01*
X40428Y475639D01*
X33431D01*
X42761Y468641D02*
Y463976D01*
X40428Y461643D01*
X33431D01*
Y468641D01*
X35763Y470974D01*
X38096Y468641D01*
Y461643D01*
X33431Y456978D02*
X42761D01*
Y454646D01*
X40428Y452313D01*
X33431D01*
X40428D01*
X42761Y449980D01*
X40428Y447648D01*
X33431D01*
Y435985D02*
Y440650D01*
X35763Y442983D01*
X40428D01*
X42761Y440650D01*
Y435985D01*
X40428Y433652D01*
X38096D01*
Y442983D01*
X47426Y419657D02*
X33431D01*
Y426655D01*
X35763Y428987D01*
X40428D01*
X42761Y426655D01*
Y419657D01*
X47426Y400996D02*
X33431D01*
X38096D01*
X47426Y391666D01*
X40428Y398664D01*
X33431Y391666D01*
Y380003D02*
Y384668D01*
X35763Y387001D01*
X40428D01*
X42761Y384668D01*
Y380003D01*
X40428Y377670D01*
X38096D01*
Y387001D01*
X33431Y373005D02*
Y366007D01*
X35763Y363675D01*
X38096Y366007D01*
Y370673D01*
X40428Y373005D01*
X42761Y370673D01*
Y363675D01*
X47426Y359010D02*
X33431D01*
X40428D01*
X42761Y356677D01*
Y352012D01*
X40428Y349679D01*
X33431D01*
Y345014D02*
X47426D01*
X38096D02*
X42761Y338017D01*
X38096Y345014D02*
X33431Y338017D01*
X24536Y512960D02*
X10540D01*
Y505962D01*
X12873Y503630D01*
X15205D01*
X17538Y505962D01*
Y512960D01*
Y505962D01*
X19870Y503630D01*
X22203D01*
X24536Y505962D01*
Y512960D01*
X10540Y491967D02*
Y496632D01*
X12873Y498965D01*
X17538D01*
X19870Y496632D01*
Y491967D01*
X17538Y489634D01*
X15205D01*
Y498965D01*
X10540Y484969D02*
Y480304D01*
Y482636D01*
X24536D01*
Y484969D01*
X19870Y470974D02*
Y466308D01*
X17538Y463976D01*
X10540D01*
Y470974D01*
X12873Y473306D01*
X15205Y470974D01*
Y463976D01*
X10540Y459311D02*
Y454646D01*
Y456978D01*
X24536D01*
Y459311D01*
Y433652D02*
X10540D01*
X17538D01*
Y424322D01*
X24536D01*
X10540D01*
X19870Y417324D02*
Y412659D01*
X17538Y410326D01*
X10540D01*
Y417324D01*
X12873Y419657D01*
X15205Y417324D01*
Y410326D01*
X10540Y405661D02*
Y398664D01*
X12873Y396331D01*
X15205Y398664D01*
Y403329D01*
X17538Y405661D01*
X19870Y403329D01*
Y396331D01*
X10540Y391666D02*
Y384668D01*
X12873Y382336D01*
X15205Y384668D01*
Y389333D01*
X17538Y391666D01*
X19870Y389333D01*
Y382336D01*
Y375338D02*
Y370673D01*
X17538Y368340D01*
X10540D01*
Y375338D01*
X12873Y377670D01*
X15205Y375338D01*
Y368340D01*
X10540Y363675D02*
X19870D01*
Y356677D01*
X17538Y354345D01*
X10540D01*
D18*
X546005Y266752D02*
Y278748D01*
X552003D01*
X554003Y276749D01*
Y272750D01*
X552003Y270751D01*
X546005D01*
X550004D02*
X554003Y266752D01*
X565999D02*
X558001D01*
X565999Y274749D01*
Y276749D01*
X563999Y278748D01*
X560001D01*
X558001Y276749D01*
X569997Y268751D02*
X571997Y266752D01*
X575995D01*
X577995Y268751D01*
Y276749D01*
X575995Y278748D01*
X571997D01*
X569997Y276749D01*
Y274749D01*
X571997Y272750D01*
X577995D01*
X612498Y184755D02*
X600502D01*
Y190753D01*
X602501Y192753D01*
X606500D01*
X608499Y190753D01*
Y184755D01*
Y188754D02*
X612498Y192753D01*
Y204749D02*
Y196751D01*
X604501Y204749D01*
X602501D01*
X600502Y202749D01*
Y198751D01*
X602501Y196751D01*
Y208747D02*
X600502Y210747D01*
Y214746D01*
X602501Y216745D01*
X604501D01*
X606500Y214746D01*
X608499Y216745D01*
X610499D01*
X612498Y214746D01*
Y210747D01*
X610499Y208747D01*
X608499D01*
X606500Y210747D01*
X604501Y208747D01*
X602501D01*
X606500Y210747D02*
Y214746D01*
X611248Y228005D02*
X599252D01*
Y234003D01*
X601251Y236003D01*
X605250D01*
X607249Y234003D01*
Y228005D01*
Y232004D02*
X611248Y236003D01*
Y247999D02*
Y240001D01*
X603251Y247999D01*
X601251D01*
X599252Y245999D01*
Y242001D01*
X601251Y240001D01*
X599252Y251997D02*
Y259995D01*
X601251D01*
X609249Y251997D01*
X611248D01*
X477001Y271499D02*
X475001Y273498D01*
X471003D01*
X469003Y271499D01*
Y263501D01*
X471003Y261502D01*
X475001D01*
X477001Y263501D01*
X488997Y273498D02*
X484998Y271499D01*
X480999Y267500D01*
Y263501D01*
X482999Y261502D01*
X486997D01*
X488997Y263501D01*
Y265501D01*
X486997Y267500D01*
X480999D01*
X401498Y196497D02*
X391501D01*
X389502Y194497D01*
Y190499D01*
X391501Y188499D01*
X401498D01*
X399499Y184501D02*
X401498Y182501D01*
Y178503D01*
X399499Y176503D01*
X397499D01*
X395500Y178503D01*
Y180502D01*
Y178503D01*
X393501Y176503D01*
X391501D01*
X389502Y178503D01*
Y182501D01*
X391501Y184501D01*
X443255Y186002D02*
Y197998D01*
X449253D01*
X451253Y195999D01*
Y192000D01*
X449253Y190001D01*
X443255D01*
X447254D02*
X451253Y186002D01*
X463249D02*
X455251D01*
X463249Y193999D01*
Y195999D01*
X461249Y197998D01*
X457251D01*
X455251Y195999D01*
X475245Y197998D02*
X471246Y195999D01*
X467247Y192000D01*
Y188001D01*
X469247Y186002D01*
X473246D01*
X475245Y188001D01*
Y190001D01*
X473246Y192000D01*
X467247D01*
X301003Y552248D02*
Y542251D01*
X303002Y540252D01*
X307001D01*
X309000Y542251D01*
Y552248D01*
X312999Y540252D02*
X316997D01*
X314998D01*
Y552248D01*
X312999Y550249D01*
X222103Y549098D02*
Y539101D01*
X224103Y537102D01*
X228101D01*
X230101Y539101D01*
Y549098D01*
X234100Y539101D02*
X236099Y537102D01*
X240098D01*
X242097Y539101D01*
Y547099D01*
X240098Y549098D01*
X236099D01*
X234100Y547099D01*
Y545099D01*
X236099Y543100D01*
X242097D01*
X311253Y401748D02*
Y391751D01*
X313253Y389752D01*
X317251D01*
X319251Y391751D01*
Y401748D01*
X323249D02*
X331247D01*
Y399749D01*
X323249Y391751D01*
Y389752D01*
X501502Y205003D02*
X511499D01*
X513498Y207003D01*
Y211001D01*
X511499Y213001D01*
X501502D01*
Y224997D02*
X503501Y220998D01*
X507500Y216999D01*
X511499D01*
X513498Y218999D01*
Y222997D01*
X511499Y224997D01*
X509499D01*
X507500Y222997D01*
Y216999D01*
X467255Y160502D02*
Y172498D01*
X473253D01*
X475253Y170499D01*
Y166500D01*
X473253Y164501D01*
X467255D01*
X471254D02*
X475253Y160502D01*
X487249D02*
X479251D01*
X487249Y168499D01*
Y170499D01*
X485249Y172498D01*
X481251D01*
X479251Y170499D01*
X499245Y172498D02*
X491247D01*
Y166500D01*
X495246Y168499D01*
X497245D01*
X499245Y166500D01*
Y162501D01*
X497245Y160502D01*
X493247D01*
X491247Y162501D01*
X462005Y117502D02*
Y129498D01*
X468003D01*
X470003Y127499D01*
Y123500D01*
X468003Y121501D01*
X462005D01*
X466004D02*
X470003Y117502D01*
X481999D02*
X474001D01*
X481999Y125499D01*
Y127499D01*
X479999Y129498D01*
X476001D01*
X474001Y127499D01*
X491996Y117502D02*
Y129498D01*
X485997Y123500D01*
X493995D01*
X578255Y103002D02*
Y114998D01*
X584253D01*
X586253Y112999D01*
Y109000D01*
X584253Y107001D01*
X578255D01*
X582254D02*
X586253Y103002D01*
X598249D02*
X590251D01*
X598249Y110999D01*
Y112999D01*
X596249Y114998D01*
X592251D01*
X590251Y112999D01*
X602247D02*
X604247Y114998D01*
X608246D01*
X610245Y112999D01*
Y110999D01*
X608246Y109000D01*
X606246D01*
X608246D01*
X610245Y107001D01*
Y105001D01*
X608246Y103002D01*
X604247D01*
X602247Y105001D01*
X580005Y127002D02*
Y138998D01*
X586003D01*
X588003Y136999D01*
Y133000D01*
X586003Y131001D01*
X580005D01*
X584004D02*
X588003Y127002D01*
X599999D02*
X592001D01*
X599999Y134999D01*
Y136999D01*
X597999Y138998D01*
X594001D01*
X592001Y136999D01*
X611995Y127002D02*
X603997D01*
X611995Y134999D01*
Y136999D01*
X609995Y138998D01*
X605997D01*
X603997Y136999D01*
X580505Y77752D02*
Y89748D01*
X586503D01*
X588502Y87749D01*
Y83750D01*
X586503Y81751D01*
X580505D01*
X584503D02*
X588502Y77752D01*
X600498D02*
X592501D01*
X600498Y85749D01*
Y87749D01*
X598499Y89748D01*
X594500D01*
X592501Y87749D01*
X604497Y77752D02*
X608495D01*
X606496D01*
Y89748D01*
X604497Y87749D01*
X473753Y102998D02*
Y91002D01*
X479751D01*
X481751Y93001D01*
Y100999D01*
X479751Y102998D01*
X473753D01*
X493747D02*
X489748Y100999D01*
X485749Y97000D01*
Y93001D01*
X487749Y91002D01*
X491747D01*
X493747Y93001D01*
Y95001D01*
X491747Y97000D01*
X485749D01*
X596001Y158499D02*
X594001Y160498D01*
X590003D01*
X588003Y158499D01*
Y150501D01*
X590003Y148502D01*
X594001D01*
X596001Y150501D01*
X607997Y160498D02*
X599999D01*
Y154500D01*
X603998Y156499D01*
X605997D01*
X607997Y154500D01*
Y150501D01*
X605997Y148502D01*
X601999D01*
X599999Y150501D01*
X495255Y552752D02*
Y564748D01*
X501253D01*
X503253Y562749D01*
Y558750D01*
X501253Y556751D01*
X495255D01*
X499254D02*
X503253Y552752D01*
X515249D02*
X507251D01*
X515249Y560749D01*
Y562749D01*
X513249Y564748D01*
X509251D01*
X507251Y562749D01*
X519247D02*
X521247Y564748D01*
X525246D01*
X527245Y562749D01*
Y554751D01*
X525246Y552752D01*
X521247D01*
X519247Y554751D01*
Y562749D01*
X87998Y569255D02*
X76002D01*
Y575253D01*
X78001Y577252D01*
X82000D01*
X83999Y575253D01*
Y569255D01*
Y573254D02*
X87998Y577252D01*
Y581251D02*
Y585250D01*
Y583250D01*
X76002D01*
X78001Y581251D01*
X85999Y591248D02*
X87998Y593247D01*
Y597246D01*
X85999Y599245D01*
X78001D01*
X76002Y597246D01*
Y593247D01*
X78001Y591248D01*
X80001D01*
X82000Y593247D01*
Y599245D01*
X496505Y581752D02*
Y593748D01*
X502503D01*
X504502Y591749D01*
Y587750D01*
X502503Y585751D01*
X496505D01*
X500504D02*
X504502Y581752D01*
X508501D02*
X512500D01*
X510500D01*
Y593748D01*
X508501Y591749D01*
X518498D02*
X520497Y593748D01*
X524496D01*
X526495Y591749D01*
Y589749D01*
X524496Y587750D01*
X526495Y585751D01*
Y583751D01*
X524496Y581752D01*
X520497D01*
X518498Y583751D01*
Y585751D01*
X520497Y587750D01*
X518498Y589749D01*
Y591749D01*
X520497Y587750D02*
X524496D01*
X612502Y565745D02*
X624498D01*
Y559747D01*
X622499Y557748D01*
X618500D01*
X616501Y559747D01*
Y565745D01*
Y561746D02*
X612502Y557748D01*
Y553749D02*
Y549750D01*
Y551750D01*
X624498D01*
X622499Y553749D01*
X624498Y543752D02*
Y535755D01*
X622499D01*
X614501Y543752D01*
X612502D01*
X612752Y608245D02*
X624748D01*
Y602247D01*
X622749Y600248D01*
X618750D01*
X616751Y602247D01*
Y608245D01*
Y604246D02*
X612752Y600248D01*
Y596249D02*
Y592250D01*
Y594250D01*
X624748D01*
X622749Y596249D01*
X624748Y578255D02*
X622749Y582253D01*
X618750Y586252D01*
X614751D01*
X612752Y584253D01*
Y580254D01*
X614751Y578255D01*
X616751D01*
X618750Y580254D01*
Y586252D01*
X509255Y8002D02*
Y19998D01*
X515253D01*
X517252Y17999D01*
Y14000D01*
X515253Y12001D01*
X509255D01*
X513254D02*
X517252Y8002D01*
X521251D02*
X525250D01*
X523250D01*
Y19998D01*
X521251Y17999D01*
X539245Y19998D02*
X531248D01*
Y14000D01*
X535246Y15999D01*
X537246D01*
X539245Y14000D01*
Y10001D01*
X537246Y8002D01*
X533247D01*
X531248Y10001D01*
X350505Y113002D02*
Y124998D01*
X356503D01*
X358502Y122999D01*
Y119000D01*
X356503Y117001D01*
X350505D01*
X354504D02*
X358502Y113002D01*
X362501D02*
X366500D01*
X364500D01*
Y124998D01*
X362501Y122999D01*
X378496Y113002D02*
Y124998D01*
X372498Y119000D01*
X380495D01*
X397005Y100752D02*
Y112748D01*
X403003D01*
X405002Y110749D01*
Y106750D01*
X403003Y104751D01*
X397005D01*
X401003D02*
X405002Y100752D01*
X409001D02*
X413000D01*
X411000D01*
Y112748D01*
X409001Y110749D01*
X418998D02*
X420997Y112748D01*
X424996D01*
X426995Y110749D01*
Y108749D01*
X424996Y106750D01*
X422996D01*
X424996D01*
X426995Y104751D01*
Y102751D01*
X424996Y100752D01*
X420997D01*
X418998Y102751D01*
X519751Y41499D02*
X517751Y43498D01*
X513753D01*
X511753Y41499D01*
Y33501D01*
X513753Y31502D01*
X517751D01*
X519751Y33501D01*
X523749Y41499D02*
X525749Y43498D01*
X529747D01*
X531747Y41499D01*
Y39499D01*
X529747Y37500D01*
X531747Y35501D01*
Y33501D01*
X529747Y31502D01*
X525749D01*
X523749Y33501D01*
Y35501D01*
X525749Y37500D01*
X523749Y39499D01*
Y41499D01*
X525749Y37500D02*
X529747D01*
X437253Y82248D02*
Y72251D01*
X439253Y70252D01*
X443251D01*
X445251Y72251D01*
Y82248D01*
X457247D02*
X449249D01*
Y76250D01*
X453248Y78249D01*
X455247D01*
X457247Y76250D01*
Y72251D01*
X455247Y70252D01*
X451249D01*
X449249Y72251D01*
X535497Y708248D02*
X531499D01*
X533498D01*
Y698251D01*
X531499Y696252D01*
X529499D01*
X527500Y698251D01*
X547494Y696252D02*
X539496D01*
X547494Y704249D01*
Y706249D01*
X545494Y708248D01*
X541495D01*
X539496Y706249D01*
X606747Y646501D02*
Y654499D01*
X604748Y656498D01*
X600749D01*
X598750Y654499D01*
Y646501D01*
X600749Y644502D01*
X604748D01*
X602749Y648501D02*
X606747Y644502D01*
X604748D02*
X606747Y646501D01*
X618744Y644502D02*
X610746D01*
X618744Y652499D01*
Y654499D01*
X616744Y656498D01*
X612746D01*
X610746Y654499D01*
X79997Y615751D02*
Y623749D01*
X77998Y625748D01*
X73999D01*
X72000Y623749D01*
Y615751D01*
X73999Y613752D01*
X77998D01*
X75999Y617751D02*
X79997Y613752D01*
X77998D02*
X79997Y615751D01*
X83996Y613752D02*
X87995D01*
X85995D01*
Y625748D01*
X83996Y623749D01*
X541247Y647751D02*
Y655749D01*
X539248Y657748D01*
X535249D01*
X533250Y655749D01*
Y647751D01*
X535249Y645752D01*
X539248D01*
X537249Y649751D02*
X541247Y645752D01*
X539248D02*
X541247Y647751D01*
X545246Y655749D02*
X547245Y657748D01*
X551244D01*
X553243Y655749D01*
Y653749D01*
X551244Y651750D01*
X549245D01*
X551244D01*
X553243Y649751D01*
Y647751D01*
X551244Y645752D01*
X547245D01*
X545246Y647751D01*
X45752Y293250D02*
X55749D01*
X57748Y295249D01*
Y299248D01*
X55749Y301247D01*
X45752D01*
X57748Y313244D02*
Y305246D01*
X49751Y313244D01*
X47751D01*
X45752Y311244D01*
Y307245D01*
X47751Y305246D01*
X73002Y667500D02*
X84998D01*
Y673498D01*
X82999Y675497D01*
X75001D01*
X73002Y673498D01*
Y667500D01*
X84998Y679496D02*
Y683495D01*
Y681495D01*
X73002D01*
X75001Y679496D01*
X120000Y208002D02*
Y219998D01*
X125998D01*
X127997Y217999D01*
Y214000D01*
X125998Y212001D01*
X120000D01*
X123999D02*
X127997Y208002D01*
X137994D02*
Y219998D01*
X131996Y214000D01*
X139993D01*
X89248Y540250D02*
X77252D01*
Y546248D01*
X79251Y548247D01*
X83250D01*
X85249Y546248D01*
Y540250D01*
Y544249D02*
X89248Y548247D01*
Y552246D02*
Y556245D01*
Y554245D01*
X77252D01*
X79251Y552246D01*
X357997Y19498D02*
X353999D01*
X355998D01*
Y9501D01*
X353999Y7502D01*
X351999D01*
X350000Y9501D01*
X361996Y7502D02*
X365995D01*
X363995D01*
Y19498D01*
X361996Y17499D01*
X543000Y540748D02*
Y528752D01*
X548998D01*
X550997Y530751D01*
Y538749D01*
X548998Y540748D01*
X543000D01*
X562994Y528752D02*
X554996D01*
X562994Y536749D01*
Y538749D01*
X560994Y540748D01*
X556996D01*
X554996Y538749D01*
X130748Y89500D02*
X120751D01*
X118752Y87501D01*
Y83502D01*
X120751Y81503D01*
X130748D01*
X118752Y71506D02*
X130748D01*
X124750Y77504D01*
Y69507D01*
X4252Y147500D02*
X16248D01*
Y155497D01*
Y159496D02*
Y163495D01*
Y161495D01*
X4252D01*
X6251Y159496D01*
X115000Y1752D02*
Y13748D01*
X120998D01*
X122997Y11749D01*
Y7750D01*
X120998Y5751D01*
X115000D01*
X118999D02*
X122997Y1752D01*
X126996D02*
X130995D01*
X128995D01*
Y13748D01*
X126996Y11749D01*
X136993Y1752D02*
X140992D01*
X138992D01*
Y13748D01*
X136993Y11749D01*
X136000Y74502D02*
Y86498D01*
X141998D01*
X143997Y84499D01*
Y80500D01*
X141998Y78501D01*
X136000D01*
X139999D02*
X143997Y74502D01*
X147996D02*
X151995D01*
X149995D01*
Y86498D01*
X147996Y84499D01*
X157993D02*
X159992Y86498D01*
X163991D01*
X165990Y84499D01*
Y76501D01*
X163991Y74502D01*
X159992D01*
X157993Y76501D01*
Y84499D01*
X57250Y2002D02*
Y13998D01*
X63248D01*
X65247Y11999D01*
Y8000D01*
X63248Y6001D01*
X57250D01*
X61249D02*
X65247Y2002D01*
X69246D02*
X73245D01*
X71245D01*
Y13998D01*
X69246Y11999D01*
X87240Y2002D02*
X79243D01*
X87240Y9999D01*
Y11999D01*
X85241Y13998D01*
X81242D01*
X79243Y11999D01*
X106747Y161499D02*
X104748Y163498D01*
X100749D01*
X98750Y161499D01*
Y153501D01*
X100749Y151502D01*
X104748D01*
X106747Y153501D01*
X118743Y151502D02*
X110746D01*
X118743Y159499D01*
Y161499D01*
X116744Y163498D01*
X112745D01*
X110746Y161499D01*
X37247Y213999D02*
X35248Y215998D01*
X31249D01*
X29250Y213999D01*
Y206001D01*
X31249Y204002D01*
X35248D01*
X37247Y206001D01*
X47244Y204002D02*
Y215998D01*
X41246Y210000D01*
X49243D01*
X146497Y166749D02*
X144498Y168748D01*
X140499D01*
X138500Y166749D01*
Y158751D01*
X140499Y156752D01*
X144498D01*
X146497Y158751D01*
X150496Y166749D02*
X152495Y168748D01*
X156494D01*
X158493Y166749D01*
Y164749D01*
X156494Y162750D01*
X154495D01*
X156494D01*
X158493Y160751D01*
Y158751D01*
X156494Y156752D01*
X152495D01*
X150496Y158751D01*
X41751Y72997D02*
X39752Y70998D01*
Y66999D01*
X41751Y65000D01*
X49749D01*
X51748Y66999D01*
Y70998D01*
X49749Y72997D01*
X51748Y76996D02*
Y80995D01*
Y78995D01*
X39752D01*
X41751Y76996D01*
X590554Y513502D02*
Y525498D01*
X596552D01*
X598551Y523499D01*
Y519500D01*
X596552Y517501D01*
X590554D01*
X594553D02*
X598551Y513502D01*
X610548Y525498D02*
X602550D01*
Y519500D01*
X606549Y521499D01*
X608548D01*
X610548Y519500D01*
Y515501D01*
X608548Y513502D01*
X604550D01*
X602550Y515501D01*
X590054Y334502D02*
Y346498D01*
X596052D01*
X598051Y344499D01*
Y340500D01*
X596052Y338501D01*
X590054D01*
X594053D02*
X598051Y334502D01*
X602050Y336501D02*
X604050Y334502D01*
X608048D01*
X610048Y336501D01*
Y344499D01*
X608048Y346498D01*
X604050D01*
X602050Y344499D01*
Y342499D01*
X604050Y340500D01*
X610048D01*
X600250Y386002D02*
Y397998D01*
X606248D01*
X608247Y395999D01*
Y392000D01*
X606248Y390001D01*
X600250D01*
X604249D02*
X608247Y386002D01*
X612246Y395999D02*
X614245Y397998D01*
X618244D01*
X620243Y395999D01*
Y393999D01*
X618244Y392000D01*
X620243Y390001D01*
Y388001D01*
X618244Y386002D01*
X614245D01*
X612246Y388001D01*
Y390001D01*
X614245Y392000D01*
X612246Y393999D01*
Y395999D01*
X614245Y392000D02*
X618244D01*
X590554Y445002D02*
Y456998D01*
X596552D01*
X598551Y454999D01*
Y451000D01*
X596552Y449001D01*
X590554D01*
X594553D02*
X598551Y445002D01*
X602550Y456998D02*
X610548D01*
Y454999D01*
X602550Y447001D01*
Y445002D01*
X561250Y345998D02*
Y334002D01*
X567248D01*
X569247Y336001D01*
Y343999D01*
X567248Y345998D01*
X561250D01*
X581244D02*
X573246D01*
Y340000D01*
X577245Y341999D01*
X579244D01*
X581244Y340000D01*
Y336001D01*
X579244Y334002D01*
X575246D01*
X573246Y336001D01*
X566500Y400748D02*
Y388752D01*
X572498D01*
X574497Y390751D01*
Y398749D01*
X572498Y400748D01*
X566500D01*
X584494Y388752D02*
Y400748D01*
X578496Y394750D01*
X586493D01*
X548804Y458248D02*
Y446252D01*
X554802D01*
X556802Y448251D01*
Y456249D01*
X554802Y458248D01*
X548804D01*
X560800Y456249D02*
X562800Y458248D01*
X566798D01*
X568798Y456249D01*
Y454249D01*
X566798Y452250D01*
X564799D01*
X566798D01*
X568798Y450251D01*
Y448251D01*
X566798Y446252D01*
X562800D01*
X560800Y448251D01*
X127752Y629250D02*
X139748D01*
X135749D01*
X127752Y637247D01*
X133750Y631249D01*
X139748Y637247D01*
Y641246D02*
Y645245D01*
Y643245D01*
X127752D01*
X129751Y641246D01*
X119250Y181252D02*
Y193248D01*
X125248D01*
X127247Y191249D01*
Y187250D01*
X125248Y185251D01*
X119250D01*
X123249D02*
X127247Y181252D01*
X139243Y193248D02*
X135245Y191249D01*
X131246Y187250D01*
Y183251D01*
X133245Y181252D01*
X137244D01*
X139243Y183251D01*
Y185251D01*
X137244Y187250D01*
X131246D01*
X228502Y277000D02*
X240498D01*
Y271002D01*
X238499Y269003D01*
X234500D01*
X232501Y271002D01*
Y277000D01*
Y273001D02*
X228502Y269003D01*
X238499Y265004D02*
X240498Y263005D01*
Y259006D01*
X238499Y257007D01*
X236499D01*
X234500Y259006D01*
Y261005D01*
Y259006D01*
X232501Y257007D01*
X230501D01*
X228502Y259006D01*
Y263005D01*
X230501Y265004D01*
X85500Y245502D02*
Y257498D01*
X91498D01*
X93497Y255499D01*
Y251500D01*
X91498Y249501D01*
X85500D01*
X89499D02*
X93497Y245502D01*
X105493D02*
X97496D01*
X105493Y253499D01*
Y255499D01*
X103494Y257498D01*
X99495D01*
X97496Y255499D01*
M02*
