G04*
G04 #@! TF.GenerationSoftware,Altium Limited,Altium Designer,25.8.1 (18)*
G04*
G04 Layer_Color=16711935*
%FSLAX44Y44*%
%MOMM*%
G71*
G04*
G04 #@! TF.SameCoordinates,A110975B-2954-447A-95C7-488C009B8A97*
G04*
G04*
G04 #@! TF.FilePolarity,Negative*
G04*
G01*
G75*
%ADD28R,1.7032X1.7532*%
G04:AMPARAMS|DCode=31|XSize=1.2032mm|YSize=1.9032mm|CornerRadius=0.2266mm|HoleSize=0mm|Usage=FLASHONLY|Rotation=90.000|XOffset=0mm|YOffset=0mm|HoleType=Round|Shape=RoundedRectangle|*
%AMROUNDEDRECTD31*
21,1,1.2032,1.4500,0,0,90.0*
21,1,0.7500,1.9032,0,0,90.0*
1,1,0.4532,0.7250,0.3750*
1,1,0.4532,0.7250,-0.3750*
1,1,0.4532,-0.7250,-0.3750*
1,1,0.4532,-0.7250,0.3750*
%
%ADD31ROUNDEDRECTD31*%
%ADD36C,1.4000*%
%ADD37C,1.7032*%
%ADD38C,1.8796*%
%ADD39R,1.8796X1.8796*%
%ADD40R,1.4000X1.4000*%
%ADD41R,1.7032X1.7032*%
%ADD42R,2.1832X2.1832*%
%ADD43C,1.7532*%
%ADD44C,2.1832*%
%ADD45C,2.1382*%
%ADD46C,1.7272*%
%ADD47C,1.6032*%
%ADD71R,1.7532X1.7032*%
D28*
X318750Y503000D02*
D03*
X318500Y402500D02*
D03*
X167250Y335250D02*
D03*
X337250Y503000D02*
D03*
X337000Y402500D02*
D03*
X185750Y335250D02*
D03*
D31*
X357250Y84000D02*
D03*
Y103000D02*
D03*
D36*
X295000Y95250D02*
D03*
X220000D02*
D03*
X320000D02*
D03*
X270000D02*
D03*
X245000D02*
D03*
X370250Y623750D02*
D03*
X420250D02*
D03*
X395250D02*
D03*
X445250D02*
D03*
X470250D02*
D03*
D37*
X473900Y450300D02*
D03*
X465450Y301400D02*
D03*
X230950Y448150D02*
D03*
X361450Y153900D02*
D03*
X346900Y526500D02*
D03*
X234450Y153900D02*
D03*
X285250D02*
D03*
X310650D02*
D03*
X346900Y450300D02*
D03*
X321500Y526500D02*
D03*
X313050Y377600D02*
D03*
X78550Y524350D02*
D03*
X209050Y230100D02*
D03*
X285250D02*
D03*
X361450D02*
D03*
X310650D02*
D03*
X234450D02*
D03*
X336050Y153900D02*
D03*
X259850D02*
D03*
X336050Y230100D02*
D03*
X259850D02*
D03*
X180150Y448150D02*
D03*
X397700Y526500D02*
D03*
X205550Y448150D02*
D03*
X372300Y450300D02*
D03*
X423100Y526500D02*
D03*
X338450Y301400D02*
D03*
X129350Y448150D02*
D03*
X423100Y450300D02*
D03*
X473900Y526500D02*
D03*
X372300D02*
D03*
X448500Y450300D02*
D03*
X397700D02*
D03*
X448500Y526500D02*
D03*
X440050Y301400D02*
D03*
X414650D02*
D03*
X389250D02*
D03*
X414650Y377600D02*
D03*
X440050D02*
D03*
X389250D02*
D03*
X465450D02*
D03*
X363850D02*
D03*
X338450D02*
D03*
X363850Y301400D02*
D03*
X154750Y448150D02*
D03*
X103950D02*
D03*
Y524350D02*
D03*
X129350D02*
D03*
X154750D02*
D03*
X180150D02*
D03*
X205550D02*
D03*
X230950D02*
D03*
D38*
X250650Y376750D02*
D03*
X199850Y300550D02*
D03*
X174450Y376750D02*
D03*
X149050D02*
D03*
Y300550D02*
D03*
X72850Y376750D02*
D03*
X174450Y300550D02*
D03*
X123650D02*
D03*
X250650D02*
D03*
X225250Y376750D02*
D03*
X123650D02*
D03*
X199850D02*
D03*
X225250Y300550D02*
D03*
X98250Y376750D02*
D03*
Y300550D02*
D03*
D39*
X72850D02*
D03*
D40*
X195000Y95250D02*
D03*
X495250Y623750D02*
D03*
D41*
X209050Y153900D02*
D03*
X78550Y448150D02*
D03*
X313050Y301400D02*
D03*
X321500Y450300D02*
D03*
D42*
X179250Y695250D02*
D03*
D43*
X565000Y494750D02*
D03*
X539600D02*
D03*
D44*
X301250Y575250D02*
D03*
X179250D02*
D03*
X301250Y695250D02*
D03*
D45*
X159250Y635250D02*
D03*
D46*
X584750Y669250D02*
D03*
Y30500D02*
D03*
X34500D02*
D03*
Y669250D02*
D03*
D47*
X355750Y57250D02*
D03*
X616750Y621000D02*
D03*
X612250Y471500D02*
D03*
X613500Y290750D02*
D03*
X493500Y449750D02*
D03*
X557750Y398500D02*
D03*
X520500Y290683D02*
D03*
X432500Y273250D02*
D03*
X593250Y171250D02*
D03*
X582500Y68000D02*
D03*
X533000Y148000D02*
D03*
X465750Y243000D02*
D03*
X466500Y21250D02*
D03*
X390161Y89783D02*
D03*
X253750Y396250D02*
D03*
X162250Y395500D02*
D03*
X139000Y582750D02*
D03*
X74250Y482750D02*
D03*
X56250Y443750D02*
D03*
X87000Y395000D02*
D03*
X366250Y249250D02*
D03*
X361500Y176000D02*
D03*
X182000Y263500D02*
D03*
X127750Y165250D02*
D03*
X70500Y275000D02*
D03*
X88500Y181000D02*
D03*
X98750Y45250D02*
D03*
X510750Y347500D02*
D03*
X270125Y113250D02*
D03*
X465750Y60500D02*
D03*
X391250Y107750D02*
D03*
X196250Y113250D02*
D03*
X188750Y166000D02*
D03*
X496750Y369750D02*
D03*
X246750Y113250D02*
D03*
X455250Y227250D02*
D03*
X148936Y281104D02*
D03*
X120750Y248250D02*
D03*
X594750Y402500D02*
D03*
X587250Y269000D02*
D03*
X494750Y224500D02*
D03*
X457500Y141250D02*
D03*
X184750Y284000D02*
D03*
X142500Y683250D02*
D03*
X62750Y545250D02*
D03*
X173250Y237250D02*
D03*
X174500Y134750D02*
D03*
X156500Y30250D02*
D03*
X279809Y412750D02*
D03*
X286750Y250750D02*
D03*
X205250Y328500D02*
D03*
X167500Y433750D02*
D03*
X322500Y322500D02*
D03*
X297360Y355812D02*
D03*
X252000Y267250D02*
D03*
X259750Y284250D02*
D03*
X194000Y430132D02*
D03*
X382500Y433250D02*
D03*
X264000Y252250D02*
D03*
X126750Y404132D02*
D03*
X413250Y509750D02*
D03*
X296000Y399750D02*
D03*
X341250Y322750D02*
D03*
X222500Y414500D02*
D03*
X417250Y469250D02*
D03*
X230750Y328750D02*
D03*
X363750Y356250D02*
D03*
X363000Y494250D02*
D03*
X383817Y511067D02*
D03*
X294250Y423750D02*
D03*
X414875Y431750D02*
D03*
X599750Y537250D02*
D03*
X549750Y342750D02*
D03*
X455000Y432500D02*
D03*
X451304Y468726D02*
D03*
X93257Y432339D02*
D03*
X376500Y393000D02*
D03*
X518750Y657500D02*
D03*
Y636750D02*
D03*
X140750Y614250D02*
D03*
X361500Y322250D02*
D03*
X138500Y552000D02*
D03*
X506500Y520750D02*
D03*
D71*
X97250Y571500D02*
D03*
X210000Y192500D02*
D03*
X97250Y553000D02*
D03*
X210000Y211000D02*
D03*
M02*
