M48
;Layer_Color=9474304
;FILE_FORMAT=4:4
METRIC
;TYPE=PLATED
T01F00S00C0.6000
T02F00S00C0.7000
T03F00S00C0.7112
T04F00S00C0.9000
T05F00S00C1.0500
T06F00S00C1.1176
T07F00S00C1.2900
T08F00S00C1.3200
;TYPE=NON_PLATED
T09F00S00C3.4000
%
T01
X01222600Y00393350
X01273100
X01296475
X01295600Y00348600
X01215100Y00446100
X01199600Y00517350
X01290350Y00532350
X01313100Y00530850
X01278350Y00547350
X01286100Y00564350
X01248850Y00694600
X01220350Y00710232
X01193850Y00713850
X01391850Y00711850
X01441225
X01443600Y00749350
X01477654Y00748826
X01481350Y00712600
X01402850Y00673100
X01390100Y00636350
X01409600Y00790600
X01439600Y00789850
X01153100Y00684232
X01119606Y00712439
X01170350Y00561600
X01148100Y00530600
X01167100Y00894350
X01168850Y00963350
X01545100Y00937600
Y00916850
T02
X01125100Y00325350
X01182850Y00310350
X01412850Y00387350
X01500600Y00347350
X01619600Y00451350
X01613600Y00549100
X01639850Y00570850
X01621100Y00682600
X01638600Y00751600
X01519850Y00729850
X01523100Y00649850
X01537100Y00627600
X01576100Y00622850
X01546850Y00570783
X01521100Y00504600
X01481350Y00507350
X01483850Y00421350
X01387850Y00456100
X01392600Y00529350
X01387850Y00602350
X01367600Y00603600
X01348850Y00602600
X01323710Y00635913
X01327600Y00678100
X01310711Y00686100
X01322167Y00699984
X01375600Y00781350
X01243350Y00608850
X01211100
X01200850Y00414850
X01154100Y00445350
X01104850Y00462850
X01164850Y00832100
X01165350Y00862850
X01532850Y00800850
X01626100Y00817350
X01643100Y00901100
T03
X01545600Y00335100
X01608850Y00348100
X01559350Y00428100
X01438100Y00428100
X01490600Y00527100
X01584100Y00678600
X01280100Y00676350
X01211100Y00564100
X01208350Y00543600
X01096850Y00555100
X01113350Y00675100
X01188600Y00675600
X01082600Y00723850
X01100600Y00762850
X01089100Y00825350
T04
X01221350Y00375350
X01246350
X01271350
X01296349
X01321350
X01346350
X01337000Y00434000
X01311600
X01286200
X01260800
X01235400
Y00510200
X01260800
X01286200
X01311600
X01337000
X01362400
X01387800
X01390200Y00581500
X01415600
X01441000
X01466400
X01491800
Y00657700
X01466400
X01441000
X01415600
X01390200
X01364800
X01339400
Y00581500
X01364800
X01362400Y00434000
X01387800
X01398650Y00730400
X01373250
X01347850
X01424050
X01449450
X01474850
X01500250
X01257300Y00728250
X01231900
X01206500
X01181100
X01155700
X01130300
X01104900
Y00804450
X01130300
X01155700
X01181100
X01206500
X01231900
X01257300
X01347850Y00806600
X01373250
X01398650
X01424050
X01449450
X01474850
X01500250
X01496600Y00903850
X01521600
X01471600
X01446600
X01421600
X01396600
T05
X01591350Y00774850
X01565950
T06
X01200800Y00580650
X01226200
X01251600
X01277000
Y00656850
X01251600
X01226200
X01200800
X01175400
X01150000
X01124600
X01099200
Y00580650
X01124600
X01150000
X01175400
T07
X01185600Y00915350
T08
X01205600Y00855350
Y00975350
X01327600
Y00855350
T09
X01060850Y00310600
X01611100
X01060850Y00949350
X01611100
M30
